<svg width="73" height="23" viewBox="0 0 73 23" fill="none" xmlns="http://www.w3.org/2000/svg">
<path d="M31.1064 9.58252C30.3478 8.64201 29.3104 8.17387 28.0865 8.17387C25.6677 8.17387 23.8494 10.1068 23.8494 12.7113C23.8494 15.3157 25.6677 17.2487 28.0865 17.2487C29.3104 17.2487 30.3478 16.7805 31.1064 15.8399L31.2363 17.0029H33.0872V8.41956H31.2363L31.1064 9.58252ZM28.4926 15.4632C26.9549 15.4632 25.8461 14.3396 25.8461 12.7113C25.8461 11.0829 26.9549 9.95932 28.4926 9.95932C30.0301 9.95932 31.1226 11.0992 31.1226 12.7113C31.1226 14.3233 30.0463 15.4632 28.4926 15.4632ZM34.467 17.0029H36.4315V8.41956H34.467V17.0029ZM19.7419 13.9889C18.2158 10.6309 16.5435 7.22379 14.8389 3.8658C14.5303 3.24333 13.9459 2.04756 13.4264 1.40872C12.6796 0.491413 11.5756 0 10.4554 0C9.33517 0 8.23117 0.491413 7.48436 1.40872C6.96485 2.04756 6.38039 3.24333 6.07191 3.8658C4.36723 7.22379 2.69503 10.6309 1.16893 13.9889C0.974104 14.4312 0.503287 15.4796 0.324701 15.9547C0.113646 16.5279 0 17.1504 0 17.7728C0 20.4756 2.09432 22.6543 4.88675 22.6543C7.19215 22.6543 9.02669 21.1636 10.4554 19.6075C11.8841 21.1636 13.7187 22.6543 16.024 22.6543C18.8165 22.6543 20.927 20.4756 20.927 17.7728C20.927 17.1504 20.7972 16.5279 20.5861 15.9547C20.4075 15.4796 19.9367 14.4312 19.7419 13.9889ZM10.4554 17.0029C9.30269 15.496 8.23117 13.6285 8.23117 12.1216C8.23117 10.6145 9.28646 9.86105 10.4554 9.86105C11.6243 9.86105 12.6958 10.6637 12.6958 12.1216C12.6958 13.5795 11.6081 15.496 10.4554 17.0029ZM16.024 20.9671C14.3168 20.9671 12.8523 19.7624 11.5553 18.3151C12.8926 16.6321 14.368 14.2496 14.368 12.1216C14.368 9.61532 12.4361 8.17387 10.4554 8.17387C8.4747 8.17387 6.55897 9.61532 6.55897 12.1216C6.55897 14.2491 8.02401 16.6308 9.3566 18.3137C8.05941 19.7617 6.59451 20.9671 4.88675 20.9671C3.03596 20.9671 1.67222 19.5419 1.67222 17.7728C1.67222 17.3469 1.73715 16.9539 1.88327 16.5443C2.02939 16.1676 2.5002 15.1192 2.69503 14.7097C4.22113 11.3517 5.86086 7.97728 7.56555 4.61929C7.87402 3.99684 8.39353 2.96487 8.78319 2.48983C9.20529 1.96565 9.78975 1.68719 10.4554 1.68719C11.121 1.68719 11.7055 1.96565 12.1276 2.48983C12.5172 2.96487 13.0368 3.99684 13.3452 4.61929C15.0499 7.97728 16.6897 11.3517 18.2158 14.7097C18.4106 15.1192 18.8814 16.1676 19.0275 16.5443C19.1736 16.9539 19.2547 17.3469 19.2547 17.7728C19.2547 19.5419 17.8748 20.9671 16.024 20.9671ZM68.3982 8.17387C67.1739 8.17387 66.1133 8.66135 65.3625 9.58252V4.75033H63.398V17.0029H65.2487L65.3787 15.8399C66.1372 16.7805 67.1746 17.2487 68.3982 17.2487C70.8173 17.2487 72.6357 15.3157 72.6357 12.7113C72.6357 10.1068 70.8173 8.17387 68.3982 8.17387ZM67.9925 15.4632C66.4388 15.4632 65.3625 14.3233 65.3625 12.7113C65.3625 11.0992 66.4388 9.95932 67.9925 9.95932C69.5464 9.95932 70.6389 11.0829 70.6389 12.7113C70.6389 14.3396 69.5301 15.4632 67.9925 15.4632ZM58.8521 8.17387C57.5801 8.17387 56.6933 8.76812 56.1896 9.58252L56.0596 8.41956H54.2089V17.0029H56.1734V12.0397C56.1734 10.8275 57.0662 9.95932 58.3001 9.95932C59.469 9.95932 60.1347 10.762 60.1347 12.138V17.0029H62.0992V11.8923C62.0992 9.59892 60.8491 8.17387 58.8521 8.17387ZM39.7922 9.64812L39.6622 8.41956H37.8115V17.0029H39.776V12.6785C39.776 11.1715 40.685 10.2051 42.1951 10.2051C42.5197 10.2051 42.8442 10.2379 43.1041 10.3197V8.41956C42.8606 8.32129 42.5521 8.28852 42.2113 8.28852C41.1814 8.28852 40.3086 8.83105 39.7922 9.64812ZM48.9976 8.17387C47.7731 8.17387 46.7123 8.66135 45.9615 9.58252V4.75033H43.997V17.0029H45.8478L45.9778 15.8399C46.7363 16.7805 47.7736 17.2487 48.9976 17.2487C51.4164 17.2487 53.2348 15.3157 53.2348 12.7113C53.2348 10.1068 51.4164 8.17387 48.9976 8.17387ZM48.5915 15.4632C47.0377 15.4632 45.9615 14.3233 45.9615 12.7113C45.9615 11.0992 47.0377 9.95932 48.5915 9.95932C50.1454 9.95932 51.2379 11.0829 51.2379 12.7113C51.2379 14.3396 50.1292 15.4632 48.5915 15.4632ZM35.4492 4.75033C34.7453 4.75033 34.1749 5.32611 34.1749 6.0362C34.1749 6.74631 34.7453 7.32207 35.4492 7.32207C36.1532 7.32207 36.7236 6.74631 36.7236 6.0362C36.7236 5.32611 36.1532 4.75033 35.4492 4.75033Z" fill="#939084"/>
</svg>
