<svg width="102" height="20" viewBox="0 0 102 20" fill="none" xmlns="http://www.w3.org/2000/svg">
<path d="M11.8366 3.76196L5.91793 7.52391L11.8366 11.2851L5.91793 15.047L0 11.2537L5.91793 7.49255L0 3.76196L5.91793 0L11.8366 3.76196ZM5.88643 16.238L11.8051 12.4769L17.7231 16.238L11.8051 20L5.88643 16.238ZM11.8366 11.2537L17.7546 7.49255L11.8366 3.76196L17.7231 0L23.6418 3.76196L17.7231 7.52391L23.6418 11.2851L17.7231 15.047L11.8366 11.2537ZM28.2716 3.76274H33.0565C36.1107 3.76274 38.6287 5.51905 38.6287 9.53113V10.3779C38.6287 14.4214 36.2674 16.2396 33.1509 16.2396H28.2716V3.76274ZM30.9471 6.02007V13.9509H32.9943C34.7249 13.9509 35.8902 12.8226 35.8902 10.3144V9.65579C35.8902 7.14835 34.6619 6.02007 32.899 6.02007H30.9471ZM40.0452 6.14552H42.1869L42.5325 8.49616C42.942 6.89744 43.9805 6.05144 45.8695 6.05144H46.5308V8.74706H45.4285C43.2561 8.74706 42.7215 9.49976 42.7215 11.6316V16.271H40.0767V6.14552H40.0452ZM47.0655 11.4121V11.1298C47.0655 7.74424 49.2379 5.89462 52.1968 5.89462C55.2196 5.89462 57.3282 7.74424 57.3282 11.1298V11.4121C57.3282 14.735 55.2825 16.5219 52.1968 16.5219C48.9229 16.4905 47.0655 14.7342 47.0655 11.4121ZM54.6211 11.3807V11.1298C54.6211 9.24886 53.6763 8.12059 52.1653 8.12059C50.6858 8.12059 49.7103 9.15556 49.7103 11.1298V11.3807C49.7103 13.199 50.6551 14.2332 52.1653 14.2332C53.6771 14.2018 54.6211 13.1982 54.6211 11.3807ZM58.7139 6.14552H60.917L61.169 8.05786C61.7044 6.77199 62.8382 5.89384 64.5059 5.89384C67.0877 5.89384 68.7876 7.74424 68.7876 11.1612V11.4435C68.7876 14.7663 66.8987 16.5219 64.5059 16.5219C62.9004 16.5219 61.7989 15.8005 61.2635 14.6401V19.7507H58.6824L58.7139 6.14552ZM66.1113 11.3807V11.1612C66.1113 9.15478 65.0728 8.15195 63.6878 8.15195C62.2075 8.15195 61.232 9.28023 61.232 11.1612V11.3494C61.232 13.1363 62.1768 14.2645 63.6563 14.2645C65.1673 14.2332 66.1113 13.2609 66.1113 11.3807ZM72.6915 14.39L72.471 16.2396H70.2041V2.75992H72.7859V7.93241C73.3529 6.61518 74.4859 5.89384 76.0914 5.89384C78.5149 5.9252 80.3093 7.58742 80.3093 10.9417V11.2553C80.3093 14.6095 78.6094 16.5219 76.0284 16.5219C74.3276 16.4905 73.2261 15.7064 72.6915 14.39ZM77.6023 11.2553V11.0044C77.6023 9.15477 76.5945 8.12059 75.178 8.12059C73.73 8.12059 72.723 9.28023 72.723 11.0358V11.2553C72.723 13.1363 73.6993 14.2332 75.1465 14.2332C76.6898 14.2332 77.6023 13.2609 77.6023 11.2553ZM81.4432 11.4121V11.1298C81.4432 7.74424 83.6147 5.89462 86.5745 5.89462C89.5964 5.89462 91.7058 7.74424 91.7058 11.1298V11.4121C91.7058 14.735 89.6279 16.5219 86.5745 16.5219C83.3006 16.4905 81.4432 14.7342 81.4432 11.4121ZM89.0295 11.3807V11.1298C89.0295 9.24886 88.0855 8.12059 86.5745 8.12059C85.095 8.12059 84.1187 9.15556 84.1187 11.1298V11.3807C84.1187 13.199 85.0635 14.2332 86.5745 14.2332C88.0855 14.2018 89.0295 13.1982 89.0295 11.3807ZM95.1687 11.0044L91.6113 6.14552H94.6648L96.7112 9.18614L98.7891 6.14552H101.811L98.1907 10.973L102 16.2396H99.0095L96.6797 12.8854L94.4128 16.2396H91.2964L95.1687 11.0044Z" fill="#939084"/>
</svg>
