<svg width="107" height="16" viewBox="0 0 107 16" fill="none" xmlns="http://www.w3.org/2000/svg">
<path d="M104.244 0.163082V10.2793L99.1692 0.163082H96.7483V15.8417H99.1692V5.45849L104.226 15.8139L104.244 15.8417H106.667V0.163082H104.244ZM16.1071 1.14086C15.5387 1.64717 14.8625 2.59105 14.8625 4.20859V15.859H17.2845V9.12L18.9253 9.12261C21.9397 9.12261 22.5851 10.4263 22.8331 11.8239C22.9781 12.6428 22.9568 15.0445 22.9364 15.8521H25.3573C25.3656 15.5326 25.4319 12.6239 25.221 11.4368C24.9643 9.99229 24.3575 8.98039 23.5672 8.28065C23.7805 8.13962 23.9844 7.98341 24.1678 7.80753C25.4291 6.59887 25.4604 5.04936 25.4604 4.88154L25.4628 0.104058L19.1912 0.101689C18.8461 0.0879409 17.2895 0.0858082 16.1071 1.14086ZM23.0386 4.87087C23.0265 5.32622 22.8034 6.80723 20.3966 6.80723H17.2845V4.20765C17.2845 3.58211 17.4407 3.12273 17.75 2.84089C18.1684 2.46068 18.8556 2.40356 19.076 2.41375L23.0395 2.41825L23.0386 4.87087ZM57.093 13.5002C56.3304 13.4073 55.2365 13.1759 54.6648 12.6625C54.2561 12.2937 53.8769 11.5226 53.8769 10.8743V3.36356H51.4543V10.8734C51.4543 11.5217 51.0383 12.2927 50.6306 12.6616C50.0596 13.1759 49.002 13.4063 48.2394 13.5004V0.177304H45.8181V15.9175L46.948 15.9898C47.0101 15.9931 47.159 16 47.3735 16C48.3378 16 50.9784 15.8454 52.4978 14.4853C52.5566 14.4315 52.6106 14.3742 52.6658 14.318C52.7206 14.3739 52.7737 14.4315 52.8334 14.4856C54.3543 15.8436 56.9934 15.9998 57.9577 15.9998C58.1734 15.9998 58.3234 15.9917 58.3832 15.9896L59.5153 15.9173V0.177065H57.0927L57.093 13.5002ZM86.1599 0C82.8129 0 80.4746 2.11816 80.4746 5.152V10.8435C80.4746 13.8773 82.8129 15.996 86.1599 15.996C89.508 15.996 91.8452 13.8778 91.8452 10.844V5.15247C91.8455 2.11816 89.5083 0 86.1599 0ZM89.4229 10.8437C89.4229 12.6206 88.2036 13.6818 86.1601 13.6818C84.1166 13.6818 82.8973 12.6203 82.8973 10.8437V5.15224C82.8973 3.37517 84.1166 2.31419 86.1601 2.31419C88.2036 2.31419 89.4229 3.37517 89.4229 5.15224V10.8437ZM73.002 6.83662H67.4392V0.17683H65.0167V15.8568H67.4392V9.152H73.002V15.853H75.4245V0.17683H73.002V6.83662ZM0 15.8639H9.79247V13.5644H2.42299V9.02305H7.0611V6.70767H2.42276V2.47229H9.79271V0.158105H0V15.8639ZM30.899 15.8637H40.6924V13.5642H33.321V9.02258H37.9596V6.70744H33.321V2.47159H40.6924V0.157393H30.8985L30.899 15.8637Z" fill="#201515"/>
</svg>
