<svg width="51" height="24" viewBox="0 0 51 24" fill="none" xmlns="http://www.w3.org/2000/svg">
<path fill-rule="evenodd" clip-rule="evenodd" d="M18.6033 2.84184L12.1531 5.69663L8.10559 5.6983L4.05814 5.70001V6.86662V8.03322H2.02906H0V15.8693V23.7054H25.075H50.15V15.8693V8.03322H48.1209H46.0919V6.86662V5.70001H42.0607H38.0295L31.5843 2.85649C28.0395 1.29254 25.1199 0.00711736 25.0963 2.96848e-05C25.0728 -0.00710201 22.151 1.27171 18.6033 2.84184ZM8.03083 14.1965V18.5106H9.80437H11.5779L11.5665 19.5342L11.555 20.5577L8.63956 20.569L5.7241 20.5803V15.2313V9.88218H6.87747H8.03083V14.1965ZM38.9362 10.0693C38.9214 10.1722 38.8481 10.7318 38.7733 11.3129L38.6371 12.3695L37.8366 12.3815L37.0359 12.3934V11.1378V9.88218H37.9995H38.9633L38.9362 10.0693ZM46.0391 11.5241C46.3539 11.743 46.4344 12.2311 46.2063 12.5391C45.8002 13.0879 44.9385 12.8022 44.9385 12.1186C44.9385 11.7746 45.0838 11.559 45.3949 11.4408C45.5993 11.3631 45.855 11.3962 46.0391 11.5241ZM42.2384 11.4921C42.7657 11.603 43.2927 11.8002 43.9453 12.1311L44.5541 12.4398V13.4062C44.5541 13.9376 44.5385 14.3725 44.5197 14.3725C44.5008 14.3725 44.1683 14.236 43.7809 14.0691C42.7967 13.6453 42.4298 13.5307 41.9696 13.5042C41.5103 13.4776 41.2769 13.5333 41.0727 13.7181C40.7992 13.9655 40.7957 14.3343 41.0638 14.6285C41.2046 14.7829 41.5811 15.005 42.0123 15.1883C43.6665 15.8913 44.4727 16.6381 44.7479 17.7221C44.8956 18.3041 44.7645 19.087 44.4183 19.6894C44.2124 20.0478 43.7664 20.4994 43.4861 20.6337C42.5902 21.063 40.9085 20.9859 39.0649 20.431L38.7232 20.3281L38.7117 19.2602C38.7008 18.2539 38.7046 18.1943 38.7758 18.2243C39.0883 18.3565 40.3217 18.7631 40.7861 18.8872C41.6048 19.1059 42.0094 19.0863 42.3115 18.8128C42.4916 18.6498 42.5559 18.441 42.4959 18.2135C42.3939 17.8258 42.177 17.6661 40.9563 17.0793C40.0608 16.6489 39.5704 16.3251 39.2241 15.9355C38.7531 15.4059 38.5638 14.8867 38.5659 14.1304C38.5679 13.3632 38.7979 12.8139 39.3492 12.2597C40.0136 11.5918 41.2055 11.2751 42.2384 11.4921ZM45.4262 11.5736C45.0154 11.7578 44.9573 12.3466 45.3245 12.6038C45.445 12.6882 45.5116 12.7038 45.6834 12.6872C45.8584 12.6704 45.9184 12.6399 46.0358 12.5079C46.1547 12.3743 46.1772 12.3152 46.1771 12.139C46.177 11.875 46.0549 11.6594 45.8574 11.5744C45.6779 11.4971 45.5969 11.497 45.4262 11.5736ZM45.8687 11.7557C45.9884 11.8419 45.9901 11.9826 45.8733 12.1109L45.7827 12.2102L45.8767 12.3669C45.955 12.4974 45.9595 12.5235 45.9036 12.5235C45.8668 12.5235 45.7881 12.4443 45.7288 12.3474C45.6695 12.2506 45.5923 12.1714 45.5574 12.1714C45.5117 12.1714 45.4938 12.2209 45.4938 12.3474C45.4938 12.4746 45.476 12.5235 45.4298 12.5235C45.3773 12.5235 45.3656 12.4478 45.3656 12.1054V11.6871H45.5697C45.6853 11.6871 45.815 11.7168 45.8687 11.7557ZM36.5233 12.7877V13.8442H34.9427H33.3622V14.5046V15.1649H34.9427H36.5233V16.1549V17.1448L34.9534 17.1565L33.3835 17.168V17.8283V18.4887L34.9534 18.5002L36.5233 18.5118V19.5461V20.5803L33.8 20.569L31.0768 20.5577L31.0658 16.1994C31.0597 13.8024 31.0639 11.8165 31.0751 11.7862C31.0911 11.743 31.6776 11.7312 33.8094 11.7312H36.5233V12.7877ZM18.4918 11.8911C18.7521 12.0247 18.9796 12.3131 19.0494 12.5981C19.0792 12.72 19.0946 13.9315 19.0946 16.167C19.0946 19.9185 19.1007 19.8299 18.8178 20.1706C18.7349 20.2703 18.5759 20.3982 18.4644 20.4547L18.2616 20.5577H15.784C13.0448 20.5577 13.1732 20.5703 12.8416 20.2703C12.7537 20.1909 12.6398 20.0447 12.5884 19.9456L12.4948 19.7653L12.4831 16.252C12.4753 13.8984 12.4863 12.6819 12.5163 12.567C12.5856 12.3019 12.807 12.033 13.0687 11.8962L13.3003 11.7752H15.7833H18.2662L18.4918 11.8911ZM22.6829 15.1429V18.5106H23.3663H24.0498V15.1429V11.7752H25.075H26.1002V15.1429V18.5106H26.7837H27.4671V15.1429V11.7752H28.6205H29.7739V15.6632C29.7739 19.9703 29.7826 19.8266 29.497 20.1706C29.4143 20.2703 29.2552 20.3982 29.1437 20.4547C28.9419 20.5571 28.9328 20.5577 27.3176 20.5577C25.7181 20.5577 25.6918 20.5562 25.5153 20.4591C25.3393 20.3622 25.1177 20.1143 25.1177 20.0143C25.1177 19.9863 25.0985 19.9634 25.075 19.9634C25.0515 19.9634 25.0323 19.9863 25.0323 20.0143C25.0323 20.1143 24.8107 20.3622 24.6347 20.4591C24.4582 20.5562 24.4319 20.5577 22.8324 20.5577C21.2172 20.5577 21.2081 20.5571 21.0063 20.4547C20.8948 20.3982 20.7357 20.2703 20.653 20.1706C20.3674 19.8266 20.3761 19.9703 20.3761 15.6632V11.7752H21.5295H22.6829V15.1429ZM45.4938 11.9293C45.4938 12.0357 45.5063 12.0435 45.6541 12.031C45.7813 12.0201 45.8142 11.9992 45.8142 11.9293C45.8142 11.8593 45.7813 11.8384 45.6541 11.8275C45.5063 11.815 45.4938 11.8229 45.4938 11.9293ZM14.7801 16.1554V18.4666H15.784H16.7878V16.1554V13.8442H15.784H14.7801V16.1554Z" fill="#939084"/>
</svg>
