<svg width="136" height="24" viewBox="0 0 136 24" fill="none" xmlns="http://www.w3.org/2000/svg">
<path fill-rule="evenodd" clip-rule="evenodd" d="M10.7049 0.0467248C10.5951 0.0691931 10.3254 0.110777 10.1058 0.1391C9.88606 0.167423 9.61644 0.21181 9.50659 0.237781C9.39675 0.263752 9.17206 0.314544 9.00729 0.350673C8.84253 0.386803 8.69648 0.431088 8.68275 0.449153C8.66903 0.467168 8.56242 0.497893 8.44584 0.517459C8.3293 0.536975 8.22126 0.573505 8.20573 0.598626C8.19025 0.623745 8.13473 0.644313 8.08235 0.644313C8.02998 0.644313 7.91334 0.676188 7.82316 0.71522C7.65885 0.786228 7.34708 0.916135 7.1599 0.991546C6.84399 1.11885 5.93742 1.58833 5.88669 1.65089C5.87296 1.66785 5.8112 1.69748 5.74938 1.71684C5.68762 1.73616 5.63704 1.77293 5.63704 1.79861C5.63704 1.82428 5.61522 1.84529 5.58856 1.84529C5.53868 1.84529 5.11763 2.12182 4.99809 2.23311C4.96115 2.26753 4.91426 2.29567 4.89394 2.29567C4.87362 2.29567 4.81345 2.33545 4.76023 2.38403C4.70695 2.43262 4.6014 2.5205 4.52561 2.57929C3.94547 3.02926 3.06567 3.90132 2.67711 4.41149C2.58309 4.53498 2.45792 4.68786 2.39896 4.75132C2.33999 4.81472 2.29175 4.88327 2.29175 4.90364C2.29175 4.92401 2.26364 4.971 2.22934 5.00803C2.12289 5.12287 1.84239 5.54887 1.84239 5.59566C1.84239 5.62008 1.82327 5.64755 1.79989 5.65676C1.70059 5.69568 1.12349 6.82756 0.847336 7.52493C0.825517 7.57997 0.770894 7.71023 0.725907 7.81437C0.680871 7.9185 0.644072 8.04666 0.644072 8.09915C0.644072 8.15165 0.622902 8.20768 0.597038 8.2237C0.571175 8.23977 0.534876 8.35366 0.516452 8.47686C0.498028 8.60006 0.465474 8.70089 0.444154 8.70089C0.422784 8.70089 0.394274 8.77405 0.380743 8.86352C0.367212 8.953 0.317632 9.18378 0.270598 9.37644C0.223514 9.5691 0.164347 9.89562 0.139033 10.102C0.113719 10.3085 0.0692315 10.6237 0.0401724 10.8026C-0.059038 11.413 0.0389241 13.7033 0.187815 14.2555C0.213778 14.3518 0.274792 14.6107 0.323424 14.8309C0.372005 15.0511 0.427826 15.2537 0.447399 15.2813C0.466971 15.3087 0.498726 15.4268 0.51795 15.5438C0.537173 15.6605 0.573422 15.7689 0.598486 15.7844C0.623551 15.7999 0.644072 15.8555 0.644072 15.908C0.644072 15.9605 0.680871 16.0886 0.725907 16.1928C0.770894 16.2969 0.825817 16.4272 0.847985 16.4823C0.870154 16.5373 0.934414 16.688 0.990834 16.8172C1.04726 16.9464 1.09344 17.076 1.09344 17.1051C1.09344 17.134 1.11027 17.1579 1.13089 17.158C1.15151 17.1581 1.21162 17.2651 1.2645 17.3957C1.31742 17.5263 1.37359 17.6445 1.38932 17.6583C1.4051 17.6719 1.46287 17.7733 1.51774 17.8833C1.57257 17.9934 1.64562 18.1133 1.68001 18.1497C1.71437 18.186 1.74252 18.2461 1.74252 18.2831C1.74252 18.3202 1.7594 18.3579 1.77997 18.3672C1.80059 18.3763 1.92941 18.5527 2.06632 18.7591C2.20323 18.9655 2.33804 19.1602 2.36589 19.1918C2.39376 19.2233 2.47274 19.3213 2.5414 19.4097C2.61005 19.498 2.69433 19.6 2.72864 19.6365C2.76294 19.6729 2.79105 19.7172 2.79105 19.7347C2.79105 19.798 4.17055 21.1421 4.46095 21.3618C4.62422 21.4854 4.8121 21.6364 4.87846 21.6974C4.94481 21.7584 5.04153 21.8219 5.09336 21.8384C5.14524 21.8548 5.18768 21.8868 5.18768 21.9092C5.18768 21.9317 5.22702 21.9632 5.27506 21.9795C5.37506 22.0131 5.52664 22.108 5.626 22.1994C5.66346 22.2338 5.72622 22.2619 5.76541 22.2619C5.80466 22.2619 5.83676 22.2796 5.83676 22.3011C5.83676 22.3225 5.9884 22.4183 6.17379 22.5137C6.35917 22.6092 6.5183 22.7042 6.52743 22.7248C6.53663 22.7455 6.56709 22.7623 6.5952 22.7623C6.64277 22.7623 7.20129 23.0083 7.39637 23.1153C7.44405 23.1413 7.51145 23.1628 7.54615 23.163C7.58086 23.1632 7.66544 23.192 7.73409 23.2271C7.80275 23.2621 7.99373 23.3323 8.1585 23.3831C8.32326 23.4339 8.49262 23.4923 8.53487 23.5131C8.57716 23.5337 8.71197 23.5673 8.83445 23.5875C8.95697 23.6079 9.0797 23.6416 9.10716 23.6629C9.13462 23.684 9.23572 23.7131 9.33184 23.7276C9.75969 23.792 10.2233 23.8729 10.4292 23.919C10.7896 23.9997 12.4443 24.0293 13.0017 23.9649C14.1096 23.8371 14.6007 23.754 14.7761 23.6645C14.8185 23.643 14.9701 23.6093 15.1132 23.5895C15.2563 23.5698 15.3733 23.5361 15.3733 23.5147C15.3733 23.4933 15.4677 23.4606 15.583 23.4421C15.6985 23.4237 15.8163 23.3916 15.8452 23.3711C15.874 23.3505 15.9875 23.3039 16.0974 23.2675C16.4964 23.1351 17.3205 22.7705 17.371 22.7038C17.385 22.6853 17.458 22.6547 17.5333 22.6358C17.6085 22.6169 17.6701 22.5869 17.6701 22.569C17.6701 22.5512 17.732 22.5086 17.8074 22.4744C17.8829 22.4402 18.1 22.3136 18.2898 22.1929L18.635 21.9735L18.4411 21.805C18.1426 21.5453 17.0681 20.4586 16.8626 20.2084C16.7617 20.0856 16.6212 19.9142 16.5505 19.8278C16.4797 19.7412 16.4219 19.6558 16.4219 19.638C16.4219 19.62 16.3657 19.5447 16.297 19.4705C16.2284 19.3963 16.1722 19.3169 16.1722 19.294C16.1722 19.2711 16.1442 19.2209 16.1098 19.1826C15.9687 19.025 15.9332 18.9716 15.9004 18.8678C15.8814 18.8081 15.8475 18.7591 15.8251 18.7591C15.8027 18.7591 15.7712 18.7197 15.7552 18.6716C15.7265 18.5864 15.6234 18.4093 15.5731 18.3587C15.5593 18.3451 15.5088 18.2493 15.4607 18.1461C15.4126 18.0429 15.334 17.874 15.2859 17.7708C15.2379 17.6677 15.1818 17.5756 15.1611 17.5664C15.1405 17.5573 15.1237 17.5271 15.1237 17.4994C15.1237 17.4719 15.0563 17.3033 14.9739 17.1248C14.8916 16.9464 14.8241 16.7697 14.8241 16.7319C14.8241 16.6942 14.8033 16.6504 14.7781 16.6348C14.7527 16.6191 14.7161 16.534 14.6968 16.4457C14.6774 16.3575 14.6439 16.2509 14.6221 16.2087C14.5646 16.0968 14.3407 15.3605 14.3021 15.1561C14.2839 15.0598 14.2507 14.936 14.228 14.8809C14.1871 14.781 14.1072 14.341 14.0097 13.6799C13.9411 13.214 13.9424 10.7146 14.0116 10.3022C14.0416 10.1233 14.0919 9.80804 14.1233 9.60162C14.1548 9.39521 14.199 9.19164 14.2215 9.14925C14.2442 9.10687 14.2787 8.95489 14.2984 8.81148C14.3181 8.66812 14.352 8.55076 14.3739 8.55076C14.3959 8.55076 14.4262 8.47761 14.4414 8.38814C14.4889 8.10855 14.5956 7.75011 14.6313 7.75011C14.6502 7.75011 14.6807 7.66004 14.6993 7.54995C14.7178 7.43986 14.7535 7.34979 14.7786 7.34979C14.8037 7.34979 14.8241 7.32317 14.8241 7.29069C14.8241 7.22678 15.1324 6.44024 15.1735 6.39901C15.1874 6.38526 15.244 6.28391 15.2997 6.17383C15.3972 5.98082 15.7633 5.32704 15.8873 5.12472C15.9204 5.07068 16.0318 4.9084 16.1348 4.76408C16.2378 4.6198 16.322 4.47824 16.322 4.44957C16.322 4.42085 16.3427 4.39738 16.3679 4.39738C16.3932 4.39738 16.4596 4.32417 16.5157 4.23474C16.6203 4.06801 16.6709 4.00631 17.1612 3.44835C17.6309 2.91382 18.4853 2.09549 18.5737 2.09549C18.8013 2.09549 18.0729 1.62176 17.163 1.17825C16.843 1.02217 16.5452 0.894517 16.5014 0.894517C16.4577 0.894517 16.4219 0.871998 16.4219 0.844476C16.4219 0.816954 16.3825 0.794285 16.3345 0.794135C16.2864 0.793935 16.1828 0.760158 16.1041 0.719073C16.0254 0.67794 15.92 0.644313 15.8699 0.644313C15.8197 0.644313 15.766 0.623745 15.7505 0.598626C15.735 0.573505 15.6278 0.536925 15.5123 0.517359C15.3968 0.497843 15.2677 0.463015 15.2254 0.439995C15.1832 0.416977 15.0363 0.373241 14.8991 0.342816C14.7617 0.312342 14.5483 0.265053 14.4247 0.237681C14.3011 0.210308 14.0202 0.166322 13.8005 0.139901C13.5808 0.113479 13.3053 0.0697937 13.1883 0.0428218C12.9361 -0.0152757 10.9926 -0.0122235 10.7049 0.0467248ZM25.4841 0.0458241C25.4017 0.0687928 25.1434 0.110026 24.91 0.137399C24.6765 0.164721 24.3844 0.209707 24.2608 0.23728C24.1372 0.264903 23.9238 0.312342 23.7865 0.342816C23.6492 0.373241 23.5022 0.416977 23.46 0.439995C23.4178 0.463015 23.2886 0.497843 23.1732 0.517359C23.0577 0.536925 22.9505 0.573505 22.935 0.598626C22.9195 0.623745 22.8657 0.644313 22.8156 0.644313C22.7654 0.644313 22.6601 0.67794 22.5814 0.719073C22.5028 0.760158 22.399 0.793935 22.351 0.794135C22.303 0.794285 22.2636 0.816954 22.2636 0.844476C22.2636 0.871998 22.2279 0.894517 22.184 0.894517C22.1403 0.894517 21.8426 1.02217 21.5224 1.17825C20.6127 1.62176 19.8841 2.09549 20.1118 2.09549C20.2001 2.09549 21.0546 2.91382 21.5244 3.44835C22.0146 4.00631 22.0653 4.06801 22.1698 4.23474C22.2259 4.32417 22.2924 4.39738 22.3177 4.39738C22.3428 4.39738 22.3635 4.42085 22.3635 4.44957C22.3635 4.47824 22.4478 4.6198 22.5508 4.76408C22.6538 4.9084 22.7651 5.07068 22.7982 5.12472C22.9221 5.32704 23.2883 5.98082 23.3859 6.17383C23.4415 6.28391 23.4982 6.38526 23.5119 6.39901C23.5532 6.44024 23.8614 7.22678 23.8614 7.29069C23.8614 7.32317 23.8819 7.34979 23.9069 7.34979C23.932 7.34979 23.9676 7.43986 23.9862 7.54995C24.0048 7.66004 24.0353 7.75011 24.0542 7.75011C24.0899 7.75011 24.1966 8.10855 24.2441 8.38814C24.2593 8.47761 24.2896 8.55076 24.3115 8.55076C24.3334 8.55076 24.3675 8.66812 24.3871 8.81148C24.4068 8.95489 24.4413 9.10687 24.4639 9.14925C24.4865 9.19164 24.5307 9.39521 24.5622 9.60162C24.5936 9.80804 24.6438 10.1233 24.6739 10.3022C24.7431 10.7146 24.7444 13.214 24.6758 13.6799C24.5784 14.341 24.4983 14.781 24.4574 14.8809C24.4349 14.936 24.4019 15.0598 24.384 15.1561C24.3498 15.341 24.1233 16.0784 24.0607 16.2087C24.0405 16.2509 24.008 16.3575 23.9887 16.4457C23.9694 16.534 23.9329 16.6191 23.9075 16.6348C23.8821 16.6504 23.8614 16.6942 23.8614 16.7319C23.8614 16.7697 23.794 16.9464 23.7116 17.1248C23.6292 17.3033 23.5618 17.4719 23.5618 17.4994C23.5618 17.5271 23.545 17.5573 23.5243 17.5664C23.5037 17.5756 23.4476 17.6677 23.3996 17.7708C23.3515 17.874 23.2728 18.0429 23.2248 18.1461C23.1768 18.2493 23.1262 18.3451 23.1125 18.3587C23.062 18.4093 22.9589 18.5864 22.9304 18.6716C22.9143 18.7197 22.8828 18.7591 22.8604 18.7591C22.8379 18.7591 22.8039 18.8087 22.7846 18.8693C22.7654 18.93 22.7246 19.008 22.6939 19.0428C22.5543 19.2007 22.5133 19.2581 22.5133 19.2954C22.5133 19.3175 22.4571 19.3963 22.3885 19.4705C22.3198 19.5447 22.2636 19.62 22.2636 19.638C22.2636 19.6558 22.2058 19.7412 22.135 19.8278C22.0643 19.9142 21.9238 20.0856 21.823 20.2084C21.6174 20.4586 20.5429 21.5453 20.2443 21.805L20.0505 21.9735L20.3956 22.1929C20.5855 22.3136 20.8026 22.4402 20.8781 22.4744C20.9536 22.5086 21.0154 22.5512 21.0154 22.569C21.0154 22.5869 21.0769 22.6169 21.1522 22.6358C21.2274 22.6547 21.3005 22.6853 21.3144 22.7038C21.3396 22.7369 21.5601 22.8461 21.8766 22.9823C21.9659 23.0207 22.0952 23.0769 22.1638 23.1074C22.4396 23.2293 23.1335 23.4629 23.22 23.4629C23.2706 23.4629 23.3121 23.4834 23.3121 23.5083C23.3121 23.5333 23.4293 23.5698 23.5723 23.5895C23.7154 23.6093 23.8671 23.643 23.9093 23.6645C24.0929 23.7581 24.6697 23.8527 25.7588 23.9679C26.3354 24.029 27.9032 23.9977 28.2598 23.918C28.4628 23.8727 28.9297 23.7915 29.3537 23.7276C29.4498 23.7131 29.5509 23.684 29.5783 23.6629C29.6058 23.6416 29.7286 23.6079 29.8511 23.5875C29.9736 23.5673 30.1084 23.5337 30.1506 23.5131C30.1928 23.4923 30.3623 23.4339 30.527 23.3831C30.6918 23.3323 30.8828 23.2621 30.9514 23.2271C31.0201 23.192 31.1047 23.1632 31.1394 23.163C31.174 23.1628 31.2414 23.1413 31.2891 23.1153C31.4843 23.0083 32.0427 22.7623 32.0903 22.7623C32.1184 22.7623 32.1488 22.7455 32.1581 22.7248C32.1724 22.6923 32.2992 22.6205 32.7525 22.3877C32.8055 22.3606 32.8488 22.3212 32.8488 22.3001C32.8488 22.2792 32.8808 22.2619 32.9201 22.2619C32.9593 22.2619 33.0221 22.2338 33.0595 22.1994C33.1588 22.108 33.3105 22.0131 33.4105 21.9795C33.4585 21.9632 33.4978 21.9317 33.4978 21.9092C33.4978 21.8868 33.5403 21.8548 33.5921 21.8384C33.644 21.8219 33.7407 21.7584 33.807 21.6974C33.8734 21.6364 34.0612 21.4852 34.2246 21.3614C34.5405 21.1219 35.6856 19.9961 35.8944 19.7198C35.9631 19.6289 36.0642 19.5023 36.1192 19.4385C36.3 19.2285 36.3661 19.1384 36.6185 18.7591C36.7558 18.5527 36.8849 18.3763 36.9055 18.3672C36.9262 18.3579 36.943 18.3202 36.943 18.2831C36.943 18.2461 36.9711 18.186 37.0055 18.1497C37.0399 18.1133 37.113 17.9934 37.1677 17.8833C37.2226 17.7733 37.2804 17.6719 37.2961 17.6583C37.3119 17.6445 37.368 17.5263 37.421 17.3957C37.4738 17.2651 37.5339 17.1581 37.5546 17.158C37.5752 17.1579 37.592 17.134 37.592 17.1051C37.592 17.076 37.6382 16.9464 37.6947 16.8172C37.7511 16.688 37.8154 16.5373 37.8375 16.4823C37.8596 16.4272 37.9146 16.2969 37.9596 16.1928C38.0047 16.0886 38.0414 15.9605 38.0414 15.908C38.0414 15.8555 38.062 15.7999 38.087 15.7844C38.112 15.7689 38.1484 15.6605 38.1676 15.5438C38.1867 15.4268 38.2186 15.3087 38.2381 15.2813C38.2577 15.2537 38.3135 15.0511 38.3621 14.8309C38.4107 14.6107 38.4717 14.3518 38.4976 14.2555C38.6466 13.7033 38.7446 11.413 38.6453 10.8026C38.6163 10.6237 38.5718 10.3085 38.5464 10.102C38.5211 9.89562 38.462 9.5691 38.4149 9.37644C38.3679 9.18378 38.3182 8.953 38.3047 8.86352C38.2912 8.77405 38.2627 8.70089 38.2413 8.70089C38.2201 8.70089 38.1875 8.60006 38.1691 8.47686C38.1506 8.35366 38.1143 8.23977 38.0885 8.2237C38.0626 8.20768 38.0414 8.15165 38.0414 8.09915C38.0414 8.04666 38.0096 7.92976 37.9707 7.83939C37.8998 7.6747 37.7702 7.36225 37.6949 7.17465C37.5264 6.75455 36.9558 5.68428 36.8856 5.65676C36.8622 5.64755 36.8431 5.62008 36.8431 5.59566C36.8431 5.54887 36.5626 5.12287 36.4561 5.00803C36.4218 4.971 36.3937 4.92401 36.3937 4.90364C36.3937 4.88327 36.3455 4.81472 36.2866 4.75132C36.2276 4.68786 36.1024 4.53498 36.0083 4.41149C35.6198 3.90132 34.7401 3.02926 34.1599 2.57929C34.0841 2.5205 33.9785 2.43262 33.9252 2.38403C33.8721 2.33545 33.8118 2.29567 33.7916 2.29567C33.7712 2.29567 33.7244 2.26753 33.6874 2.23311C33.5679 2.12182 33.1468 1.84529 33.0969 1.84529C33.0703 1.84529 33.0484 1.82428 33.0484 1.79861C33.0484 1.77293 32.9979 1.73616 32.9361 1.71684C32.8744 1.69748 32.8126 1.66785 32.7988 1.65089C32.7215 1.55555 31.7647 1.08217 31.1761 0.848029C31.1212 0.826161 30.9912 0.771416 30.8873 0.726329C30.7834 0.681192 30.6555 0.644313 30.6032 0.644313C30.5508 0.644313 30.4953 0.623745 30.4797 0.598626C30.4643 0.573505 30.3562 0.536975 30.2397 0.517459C30.1231 0.497893 30.0164 0.467168 30.0027 0.449153C29.989 0.431088 29.843 0.386803 29.6782 0.350673C29.5135 0.314544 29.2887 0.263953 29.1789 0.238231C29.069 0.21256 28.8106 0.169074 28.6047 0.141602C28.3988 0.11418 28.1053 0.0696434 27.9526 0.0427214C27.6199 -0.0159266 25.6966 -0.0135244 25.4841 0.0458241ZM19.2595 2.58525C19.2504 2.60692 19.1428 2.70259 19.0203 2.79792C18.7319 3.02241 17.6989 4.05575 17.5843 4.2345C17.5356 4.3103 17.4452 4.41339 17.3832 4.46358C17.3214 4.51373 17.2707 4.57657 17.2707 4.60325C17.2707 4.62991 17.2238 4.70148 17.1667 4.76227C17.0403 4.89664 16.582 5.5897 16.4171 5.8962C16.351 6.0187 16.2746 6.14431 16.2471 6.17528C16.1751 6.25654 15.9116 6.80144 15.603 7.50747C15.559 7.60795 15.5231 7.72485 15.5231 7.76723C15.5231 7.80961 15.5024 7.85715 15.477 7.87281C15.4516 7.88852 15.4151 7.9736 15.3958 8.06182C15.3765 8.15004 15.3431 8.25673 15.3216 8.29891C15.2521 8.43577 15.1237 8.90942 15.1237 9.02896C15.1237 9.09296 15.103 9.15816 15.0776 9.17388C15.0524 9.18954 15.016 9.35413 14.9967 9.53962C14.9775 9.72508 14.945 9.89937 14.9246 9.92689C14.9041 9.95441 14.8732 10.112 14.856 10.2772C14.8387 10.4423 14.8031 10.7575 14.7771 10.9777C14.7135 11.5138 14.7132 12.4812 14.7763 13.0044C14.901 14.0366 15.0107 14.7027 15.075 14.8176C15.1018 14.8655 15.1237 14.9495 15.1237 15.0044C15.1237 15.0592 15.1547 15.1889 15.1925 15.2928C15.2303 15.3965 15.3023 15.6166 15.3525 15.7817C15.4027 15.9468 15.4616 16.1033 15.4835 16.1295C15.5052 16.1555 15.5232 16.2119 15.5234 16.2545C15.5237 16.2972 15.5573 16.3967 15.5984 16.4754C15.6394 16.5543 15.6729 16.65 15.6729 16.6881C15.6729 16.7263 15.6953 16.7575 15.7229 16.7575C15.7503 16.7575 15.7735 16.7856 15.7744 16.82C15.7754 16.8544 15.8196 16.9726 15.8726 17.0827C15.9257 17.1928 15.9698 17.3092 15.9708 17.3413C15.9717 17.3733 15.9893 17.4072 16.0099 17.4164C16.0306 17.4255 16.0921 17.5231 16.1468 17.6331C16.2014 17.7432 16.2576 17.8447 16.2716 17.8583C16.2855 17.8721 16.3532 17.9918 16.4219 18.1244C16.4905 18.257 16.5833 18.405 16.628 18.4535C16.6727 18.502 16.7247 18.5906 16.7436 18.6504C16.7626 18.7102 16.799 18.7591 16.8246 18.7591C16.8502 18.7591 16.8712 18.7833 16.8712 18.8127C16.8712 18.8423 16.8993 18.8958 16.9336 18.9317C16.968 18.9676 17.0298 19.0476 17.0709 19.1093C17.1122 19.1712 17.1692 19.2471 17.1978 19.2782C17.2264 19.3092 17.2864 19.3878 17.3312 19.4527C17.6359 19.8947 18.7677 21.0308 19.219 21.3476C19.3164 21.4159 19.3462 21.4171 19.4456 21.3563C19.8194 21.1275 21.0367 19.9134 21.3543 19.4527C21.3991 19.3878 21.4591 19.3092 21.4877 19.2782C21.5163 19.2471 21.5733 19.1712 21.6145 19.1093C21.6558 19.0476 21.7176 18.9676 21.7519 18.9317C21.7862 18.8958 21.8143 18.8423 21.8143 18.8127C21.8143 18.7833 21.8353 18.7591 21.8609 18.7591C21.8865 18.7591 21.9229 18.7102 21.9418 18.6504C21.9608 18.5906 22.0129 18.502 22.0576 18.4535C22.1022 18.405 22.195 18.257 22.2636 18.1244C22.3322 17.9918 22.3999 17.8721 22.4139 17.8583C22.4279 17.8447 22.4841 17.7432 22.5388 17.6331C22.5934 17.5231 22.6549 17.4255 22.6755 17.4164C22.6961 17.4072 22.7138 17.3733 22.7147 17.3413C22.7156 17.3092 22.7598 17.1928 22.8129 17.0827C22.866 16.9726 22.9101 16.8544 22.911 16.82C22.9119 16.7856 22.9352 16.7575 22.9626 16.7575C22.9901 16.7575 23.0126 16.7263 23.0126 16.6881C23.0126 16.65 23.0461 16.5543 23.0872 16.4754C23.1282 16.3967 23.1619 16.2972 23.1621 16.2545C23.1622 16.2119 23.1803 16.1555 23.2021 16.1295C23.2239 16.1033 23.2828 15.9468 23.333 15.7817C23.3832 15.6166 23.4552 15.3965 23.493 15.2928C23.5309 15.1889 23.5618 15.0592 23.5618 15.0044C23.5618 14.9495 23.5837 14.8655 23.6105 14.8176C23.6748 14.7027 23.7845 14.0366 23.9091 13.0044C23.9723 12.4812 23.972 11.5138 23.9083 10.9777C23.8823 10.7575 23.8468 10.4423 23.8295 10.2772C23.8123 10.112 23.7814 9.95441 23.761 9.92689C23.7405 9.89937 23.708 9.72508 23.6888 9.53962C23.6695 9.35413 23.6331 9.18954 23.6078 9.17388C23.5825 9.15816 23.5618 9.09296 23.5618 9.02896C23.5618 8.90942 23.4334 8.43577 23.3639 8.29891C23.3424 8.25673 23.309 8.15004 23.2897 8.06182C23.2703 7.9736 23.2338 7.88852 23.2085 7.87281C23.1831 7.85715 23.1624 7.80961 23.1624 7.76723C23.1624 7.72485 23.1264 7.60795 23.0826 7.50747C22.7739 6.80144 22.5105 6.25654 22.4383 6.17528C22.4109 6.14431 22.3345 6.0187 22.2685 5.8962C22.1034 5.5897 21.6452 4.89664 21.5188 4.76227C21.4616 4.70148 21.4148 4.62991 21.4148 4.60325C21.4148 4.57657 21.3641 4.51373 21.3022 4.46358C21.2404 4.41339 21.1498 4.3103 21.1013 4.2345C20.9866 4.05575 19.9536 3.02241 19.6652 2.79792C19.5427 2.70259 19.4351 2.60692 19.426 2.58525C19.4168 2.56358 19.3793 2.54587 19.3428 2.54587C19.3061 2.54587 19.2687 2.56358 19.2595 2.58525ZM37.2425 18.9843C37.2425 19.0256 37.2762 19.0593 37.3175 19.0593C37.3715 19.0593 37.3924 19.1149 37.3924 19.2595C37.3924 19.527 37.5292 19.5411 37.5516 19.2759C37.5729 19.024 37.6812 19.0004 37.7012 19.2435C37.7123 19.3772 37.7428 19.4387 37.8042 19.4504C37.8606 19.4611 37.893 19.4347 37.8956 19.3758C37.8978 19.3232 37.9102 19.311 37.9247 19.347C37.9611 19.4376 38.0782 19.4239 38.1373 19.322C38.1823 19.2445 38.1883 19.2479 38.1897 19.3512C38.1906 19.422 38.2158 19.4598 38.2536 19.4472C38.2923 19.4343 38.316 19.3326 38.316 19.1803C38.316 18.9677 38.3016 18.9321 38.2102 18.9191C38.1357 18.9085 38.0943 18.9381 38.0701 19.0192L38.0359 19.1345L37.9811 19.0218C37.9322 18.9213 37.8894 18.9093 37.5844 18.9093C37.3138 18.9093 37.2425 18.9249 37.2425 18.9843Z" fill="#939084"/>
<path fill-rule="evenodd" clip-rule="evenodd" d="M131.441 10.2888L131.165 10.0275C131.012 9.88375 130.77 9.69316 130.626 9.6039C130.116 9.28642 129.963 9.25417 128.964 9.25417C127.949 9.25417 127.711 9.31118 126.944 9.73749C126.119 10.1963 125.247 11.4534 125.084 12.4243C125.011 12.852 125.037 14.3365 125.122 14.6033C125.236 14.9619 125.532 15.6216 125.589 15.6464C125.617 15.6583 125.641 15.6974 125.641 15.7332C125.641 15.826 126.194 16.5162 126.362 16.6323C126.439 16.686 126.61 16.8135 126.739 16.9157C127.871 17.8025 129.944 17.8426 130.927 16.9967C131.055 16.8856 131.223 16.7439 131.301 16.6817L131.441 16.5686V17.4124H133.201V6.16639H131.441V10.2888ZM80.015 9.41668H78.4466L78.4833 11.0093L80.015 11.0459V13.1953C80.015 14.9394 80.034 15.4097 80.1154 15.6894C80.4907 16.9768 81.4396 17.6292 82.9133 17.6127C83.2987 17.6085 83.6371 17.563 83.8931 17.4813C85.0802 17.1022 85.0509 17.1446 84.7108 16.2984C84.5619 15.9279 84.4188 15.6035 84.393 15.5777C84.3673 15.5518 84.1563 15.6074 83.9241 15.7014C82.8826 16.1229 82.0029 15.7963 81.8339 14.9253C81.8046 14.7737 81.7793 13.8384 81.7777 12.847L81.7748 11.0444L84.5449 11.0093L84.5815 9.41668H81.7748V7.01147H80.015V9.41668ZM49.4433 9.27725C49.0553 9.36052 48.5891 9.62029 48.26 9.93667L47.9468 10.2378V9.41668H46.1869V17.4124H47.941L47.9793 12.3745L48.165 11.9911C48.5075 11.2841 49.1028 10.9119 49.8912 10.9119C50.651 10.9119 51.2281 11.2885 51.4846 11.9519C51.6154 12.2901 51.6242 12.4476 51.6465 14.8628L51.6702 17.4161L53.3892 17.3799L53.4218 14.8447C53.4532 12.4017 53.4596 12.2981 53.5985 11.9981C53.9166 11.3111 54.5454 10.9119 55.3094 10.9119C56.2717 10.9119 56.9138 11.4829 57.0429 12.4536C57.0672 12.6353 57.0908 13.818 57.0957 15.0818L57.1045 17.3799L58.8317 17.4162V14.6929C58.8317 13.178 58.8031 11.8199 58.7676 11.6322C58.6883 11.2151 58.3511 10.5277 58.0586 10.1871C57.8013 9.88707 57.3025 9.5556 56.8437 9.37937C56.5747 9.27601 56.3527 9.25449 55.5727 9.25618L54.6276 9.2582L54.1122 9.51277C53.5176 9.80639 53.2891 9.98243 53.0942 10.297C53.0176 10.4206 52.9353 10.5204 52.9113 10.5188C52.8874 10.5171 52.7797 10.4014 52.6722 10.2616C52.4688 9.99712 52.0224 9.66644 51.5326 9.41721C51.294 9.29577 51.1178 9.26827 50.4605 9.24981C50.0279 9.23772 49.5702 9.25001 49.4433 9.27725ZM63.4268 9.26217C63.3193 9.27816 63.1726 9.31404 63.1009 9.34187C61.8013 9.84605 60.8656 10.8383 60.4339 12.1702C60.3474 12.4366 60.3197 13.7631 60.3902 14.258C60.5573 15.4327 61.4423 16.6644 62.4871 17.1764C63.1382 17.4956 63.6456 17.6178 64.2964 17.6122C65.1922 17.6046 65.8922 17.3417 66.459 16.7998L66.7836 16.4898V17.4162L68.5107 17.3799L68.5444 9.41668H66.7836V10.2872L66.5717 10.0889C66.4553 9.97984 66.2272 9.80178 66.0651 9.69316C65.5199 9.32808 65.3161 9.27289 64.4371 9.25222C63.989 9.24169 63.5344 9.24617 63.4268 9.26217ZM72.8452 9.2801C72.1604 9.37346 71.3536 9.77923 71.0224 10.1968C70.5999 10.7296 70.5314 10.9472 70.5314 11.7569C70.5314 12.438 70.5456 12.5277 70.6921 12.7645C71.1731 13.5423 72.0069 14.0065 73.1386 14.1265C73.8208 14.1988 74.5623 14.3575 74.878 14.4988C75.2307 14.6567 75.3593 14.8833 75.3006 15.2439C75.2513 15.5467 75.129 15.6757 74.7146 15.8621C74.4209 15.9941 74.2749 16.0138 73.5948 16.0135C73.129 16.0134 72.6808 15.9767 72.4868 15.9231C71.9994 15.7883 71.4044 15.5338 71.1775 15.3631L70.9763 15.2118L70.7375 15.5653C70.6062 15.7597 70.4988 15.942 70.4988 15.9704C70.4988 15.9988 70.4254 16.1211 70.3358 16.2423C70.2462 16.3634 70.1729 16.4958 70.1729 16.5366C70.1729 16.669 70.9644 17.116 71.4764 17.2726C72.9575 17.7259 74.3241 17.7196 75.5747 17.2536C76.204 17.0191 76.7273 16.5307 77.0026 15.9207C77.1356 15.6261 77.1663 15.4524 77.1703 14.9746C77.1744 14.477 77.1511 14.3417 77.0144 14.0687C76.5929 13.2266 75.6085 12.7246 74.0009 12.5318C73.1296 12.4274 72.668 12.2849 72.4806 12.0628C72.2288 11.7643 72.3131 11.343 72.6826 11.0532C73.1563 10.6816 74.6212 10.7338 75.5721 11.1562C76.3066 11.4824 76.2697 11.4821 76.4259 11.1618C76.5015 11.0064 76.6535 10.7099 76.7634 10.5027C76.8733 10.2956 76.9464 10.0822 76.9257 10.0285C76.9051 9.97482 76.7777 9.88759 76.6428 9.83467C76.5079 9.78176 76.3427 9.70752 76.2758 9.66981C76.209 9.63205 75.9303 9.52993 75.6567 9.44288C75.2463 9.31235 74.9877 9.27991 74.1814 9.25794C73.6437 9.24325 73.0424 9.25325 72.8452 9.2801ZM88.9316 9.27744C88.5109 9.342 87.6062 9.81517 87.2431 10.1605C86.3599 11.0005 85.9362 12.0556 85.9362 13.4145C85.9362 14.2682 86.0442 14.7457 86.41 15.5102C86.8785 16.4892 87.7961 17.2137 88.9335 17.5026C89.5219 17.6521 90.5957 17.6403 91.2791 17.4769C92.0434 17.2941 93.2109 16.7094 93.29 16.4699C93.3017 16.4341 93.2353 16.317 93.1425 16.2098C93.0496 16.1025 92.8527 15.832 92.705 15.6085C92.5573 15.3851 92.4179 15.2022 92.3952 15.2022C92.3725 15.2022 92.2833 15.264 92.1971 15.3394C92.0349 15.4815 91.6256 15.681 91.0629 15.8924C90.8271 15.9809 90.5653 16.0148 90.1164 16.0148C89.5467 16.0148 89.4601 15.9973 89.0615 15.8015C88.4848 15.5183 88.0881 15.0806 87.9439 14.5678C87.8848 14.3578 87.8365 14.1661 87.8365 14.1415C87.8365 14.1172 89.1389 14.0971 90.7309 14.0971H93.6252L93.6703 13.77C93.7625 13.102 93.5199 11.8346 93.1686 11.1475C92.8235 10.4726 92.242 9.916 91.4892 9.54027L90.9469 9.26951L90.0923 9.24994C89.6224 9.23922 89.0999 9.25157 88.9316 9.27744ZM98.6236 9.27784C98.106 9.37463 97.7592 9.61385 97.2918 10.1968L97.1615 10.3593L97.1571 9.41668H95.5276V17.4164L97.1245 17.3799L97.1576 14.9097C97.1925 12.3059 97.1885 12.342 97.5128 11.7112C97.6499 11.4447 97.9575 11.1873 98.3291 11.0285C98.6178 10.905 98.8624 10.8988 99.8946 10.9894C100.112 11.0084 100.125 10.9975 100.183 10.7493C100.216 10.6063 100.324 10.2408 100.424 9.93705C100.525 9.63069 100.581 9.36 100.55 9.32913C100.476 9.25586 98.9578 9.21543 98.6236 9.27784ZM104.425 9.26262C103.186 9.4553 101.9 10.4764 101.351 11.7044C101.082 12.3063 100.949 13.8538 101.127 14.3126C101.166 14.4132 101.198 14.5541 101.198 14.6256C101.198 14.8089 101.481 15.4024 101.742 15.7693C102.395 16.685 103.093 17.168 104.207 17.4758C105.063 17.7124 106.265 17.6196 107.157 17.2481C107.396 17.1484 108.107 16.7039 108.107 16.6543C108.107 16.6408 108.027 16.506 107.929 16.3548C107.832 16.2035 107.72 16.0213 107.681 15.9498C107.642 15.8783 107.528 15.679 107.427 15.507L107.242 15.1942L107.069 15.3607C106.973 15.4523 106.872 15.5272 106.845 15.5272C106.818 15.5272 106.665 15.5871 106.504 15.6602C106.059 15.8624 105.268 15.959 104.839 15.8632C104.647 15.8203 104.405 15.7416 104.303 15.6887C104.2 15.6356 104.083 15.5919 104.042 15.5914C103.87 15.5897 103.355 14.9881 103.122 14.5163C102.89 14.0499 102.875 13.9816 102.875 13.4242C102.876 12.9568 102.906 12.7611 103.017 12.51C103.258 11.9654 103.545 11.5832 103.895 11.3427C104.382 11.0087 104.712 10.9119 105.366 10.9119C105.983 10.9119 106.487 11.0619 106.97 11.3891C107.252 11.58 107.305 11.56 107.493 11.1891C107.562 11.0544 107.729 10.7724 107.865 10.5622C108.096 10.2063 108.105 10.172 108.007 10.0636C107.88 9.92477 107.15 9.53447 106.739 9.38639C106.445 9.28056 104.856 9.19554 104.425 9.26262ZM112.181 9.26217C112.074 9.27816 111.927 9.31424 111.855 9.34232C110.751 9.77494 109.971 10.4578 109.508 11.3993C109.268 11.8869 109.203 12.1037 109.118 12.6995C109.017 13.4138 109.019 13.4641 109.189 14.5963C109.232 14.8872 109.781 15.9669 109.989 16.1702C110.086 16.2635 110.207 16.3983 110.259 16.4699C110.418 16.6841 111.049 17.1213 111.425 17.2781C112.007 17.5206 112.477 17.6171 113.05 17.6122C113.936 17.6047 114.648 17.3379 115.196 16.8081C115.348 16.6609 115.475 16.5683 115.479 16.6026C115.482 16.6368 115.489 16.8258 115.495 17.0223L115.505 17.3799H117.265L117.298 9.41299L115.505 9.44918L115.498 9.79163C115.495 9.98003 115.479 10.1472 115.463 10.1631C115.447 10.1791 115.348 10.1128 115.244 10.0157C115.009 9.79827 114.57 9.51602 114.247 9.37631C114.007 9.27172 112.629 9.1956 112.181 9.26217ZM122.577 9.28128C122.068 9.4005 121.598 9.72975 121.26 10.2034C121.151 10.3562 121.149 10.35 121.146 9.88797L121.143 9.41668H119.513L119.546 17.3799L121.134 17.4164L121.156 14.9604C121.179 12.1274 121.203 11.9762 121.717 11.451C122.139 11.0183 122.487 10.8942 123.164 10.9329C123.468 10.9503 123.795 10.9847 123.89 11.0093C124.059 11.0535 124.064 11.0445 124.331 10.2241C124.499 9.70623 124.578 9.37125 124.54 9.33308C124.46 9.25365 122.874 9.21179 122.577 9.28128ZM90.8045 11.0106C91.0071 11.1363 91.3706 11.4987 91.527 11.7307C91.6005 11.8398 91.8124 12.5132 91.8124 12.6376C91.8124 12.6538 90.9154 12.667 89.8193 12.667H87.8261L87.8724 12.4557C88.0355 11.709 88.5816 11.0563 89.1713 10.9032C89.5357 10.8086 90.5909 10.878 90.8045 11.0106ZM65.4542 11.0861C65.8971 11.2951 66.3877 11.7667 66.5849 12.1728C66.7897 12.5947 66.8681 13.2599 66.7883 13.8953C66.6861 14.7071 66.2306 15.356 65.538 15.676C64.8966 15.9724 64.1258 15.9761 63.4896 15.6858C63.0009 15.463 62.7252 15.2038 62.4831 14.7399C62.054 13.9176 62.0402 13.0087 62.4441 12.1788C62.6975 11.6582 62.9815 11.3725 63.512 11.1045C63.8394 10.939 63.9538 10.9167 64.4843 10.9144C65.0042 10.9122 65.1351 10.9354 65.4542 11.0861ZM114.053 11.0222C114.484 11.1925 114.92 11.5356 115.138 11.8737C115.5 12.4359 115.552 12.633 115.55 13.4375C115.548 14.1443 115.539 14.1983 115.336 14.5965C114.869 15.5152 114.009 15.9922 113.008 15.8898C111.883 15.775 111.118 15.0024 110.91 13.7718C110.726 12.6843 111.36 11.4862 112.352 11.0472C112.734 10.8783 113.657 10.8646 114.053 11.0222ZM130.11 11.0689C130.287 11.1552 130.531 11.3007 130.653 11.3921C130.951 11.6148 131.364 12.2329 131.411 12.5268C131.432 12.6575 131.477 12.8962 131.512 13.057C131.612 13.5303 131.442 14.392 131.162 14.8223C130.86 15.2878 130.637 15.4854 130.17 15.6994C129.838 15.8522 129.693 15.8792 129.193 15.8811C128.685 15.8831 128.554 15.8591 128.215 15.702C127.704 15.465 127.363 15.1313 127.139 14.6496C126.744 13.7979 126.744 12.9285 127.141 12.1431C127.392 11.6483 127.715 11.3324 128.209 11.0997C128.556 10.9357 128.681 10.9119 129.197 10.9119C129.69 10.9119 129.841 10.9379 130.11 11.0689ZM135.045 16.6685C134.931 16.719 134.806 16.8174 134.769 16.8871C134.649 17.1109 134.688 17.4565 134.858 17.6526C134.991 17.8064 135.066 17.8349 135.335 17.8349C135.664 17.8349 135.784 17.7662 135.928 17.4966C136.052 17.2673 136.015 17.0368 135.824 16.833C135.609 16.603 135.329 16.5438 135.045 16.6685ZM135.651 16.9894C135.773 17.1745 135.728 17.5527 135.599 17.4246C135.547 17.3724 135.548 17.3279 135.604 17.2609C135.741 17.0967 135.622 16.9573 135.345 16.9573C135.092 16.9573 135.091 16.958 135.091 17.2212C135.091 17.3806 135.066 17.4692 135.026 17.4449C134.917 17.3771 134.954 17.0946 135.091 16.9573C135.272 16.7766 135.521 16.7907 135.651 16.9894ZM135.548 17.5611C135.601 17.5809 135.532 17.5995 135.394 17.6023C135.175 17.6067 135.151 17.5941 135.222 17.5092C135.272 17.4487 135.332 17.4327 135.377 17.4679C135.417 17.4992 135.494 17.5412 135.548 17.5611Z" fill="#939084"/>
</svg>
