<svg width="70" height="14" viewBox="0 0 70 14" fill="none" xmlns="http://www.w3.org/2000/svg">
<path fill-rule="evenodd" clip-rule="evenodd" d="M5.01658 0.11714C2.6767 0.730242 0.783173 3.43464 0.136253 7.08728C-0.0144011 7.93814 -0.0471245 9.64223 0.0733988 10.363C0.267319 11.523 0.604463 12.2476 1.2621 12.9182C1.59475 13.2573 1.79944 13.4106 2.12794 13.5666C3.2062 14.0786 4.53081 14.0631 5.53763 13.5268C6.01805 13.2708 6.81446 12.4986 7.39318 11.7277C7.96342 10.9679 8.51222 10.0788 9.58179 8.18189C10.0195 7.40558 10.4067 6.73855 10.4423 6.69961C10.4915 6.64574 10.7986 7.11499 11.7269 8.66203C13.4975 11.6134 14.3376 12.7274 15.2466 13.3295C15.734 13.6525 15.9869 13.7583 16.5163 13.8611C18.2219 14.192 19.6379 13.5395 20.351 12.094C20.7718 11.2408 20.9123 10.6011 20.947 9.37913C20.9795 8.23524 20.9125 7.41059 20.7024 6.36592C20.1573 3.65535 18.6299 1.30544 16.8441 0.429913C16.0601 0.0455294 15.0884 -0.095158 14.3248 0.0651749C13.9297 0.148135 13.2951 0.440399 12.8315 0.752999C12.3943 1.04774 11.4845 1.95207 11.0813 2.49258C10.9229 2.705 10.777 2.87938 10.7571 2.88019C10.7372 2.881 10.6141 2.7432 10.4836 2.57404C10.1118 2.09218 9.05025 1.09112 8.58487 0.783533C8.07668 0.447715 7.49422 0.195204 6.97266 0.0846476C6.42369 -0.0316701 5.52783 -0.0168063 5.01658 0.11714ZM25.3797 0.441666C25.358 0.463386 25.3402 3.45821 25.3402 7.09689V13.7127H26.4346H27.5288L27.5436 8.6879L27.5583 3.66314L29.4854 7.13365L31.4125 10.6042L32.4221 10.5884L33.4318 10.5728L35.3632 7.09563L37.2946 3.61843L37.3093 8.66555L37.324 13.7127H38.3895H39.455V7.05847V0.404334H38.189C36.9393 0.404334 36.9217 0.406005 36.8384 0.53396C36.7921 0.605283 35.7835 2.41982 34.5973 4.56631L32.4404 8.46903L30.2202 4.45109L28 0.43314L26.7095 0.417701C25.9999 0.409173 25.4014 0.420005 25.3797 0.441666ZM53.2818 2.36313V3.80342H52.3024H51.3231V4.69639V5.58937H52.2961H53.2692L53.2981 8.31152C53.3302 11.3363 53.3517 11.5417 53.7158 12.3188C54.2199 13.3947 55.1781 13.8998 56.7097 13.8968C57.3074 13.8956 58.2028 13.7758 58.3655 13.6752C58.3896 13.6604 58.4093 13.2574 58.4093 12.7799V11.9116L58.1932 11.9497C58.0745 11.9707 57.7044 12.0036 57.3711 12.0229C56.1722 12.0919 55.6525 11.7579 55.4763 10.8052C55.4372 10.594 55.4134 9.54199 55.4134 8.02726V5.58937H56.9114H58.4093V4.69639V3.80342H56.9114H55.4134V2.36313V0.922838H54.3476H53.2818V2.36313ZM15.7005 1.96134C17.4441 2.55808 18.7768 5.30777 18.9258 8.616C19.016 10.6193 18.5729 11.5363 17.4719 11.6246C16.4472 11.7069 15.9739 11.155 13.3569 6.82802C12.8395 5.97249 12.2955 5.09103 12.1478 4.86924C12.0002 4.64743 11.8622 4.43633 11.841 4.40015C11.7797 4.2957 12.6636 3.12603 13.1663 2.64612C14.0029 1.8475 14.7657 1.64137 15.7005 1.96134ZM6.74003 2.41929C7.21049 2.56551 7.6371 2.85622 8.14886 3.37933C8.51182 3.75036 9.38181 4.83777 9.38181 4.92039C9.38181 4.93779 9.16456 5.28334 8.89903 5.68835C8.6335 6.09336 8.00945 7.0594 7.51226 7.83502C5.45467 11.0448 4.89601 11.6365 3.92127 11.638C3.49702 11.6387 3.20522 11.5311 2.9386 11.2756C2.49234 10.8481 2.29812 10.1671 2.29657 9.02463C2.29404 7.14322 2.88202 5.07887 3.78376 3.80342C4.70444 2.50111 5.62156 2.07173 6.74003 2.41929ZM45.3217 3.62839C43.4343 3.9717 42.0836 5.24474 41.5421 7.19081C41.4001 7.70124 41.3867 7.83743 41.3876 8.75802C41.3887 9.9652 41.484 10.41 41.9401 11.3371C42.404 12.2796 43.2064 13.0584 44.1593 13.4903C44.8551 13.8059 45.4292 13.9118 46.4261 13.9087C47.4116 13.9055 47.9202 13.8133 48.7766 13.4832C49.2397 13.3046 50.1534 12.7416 50.386 12.4915L50.5148 12.353L49.9652 11.6789C49.6629 11.3082 49.4011 11.0049 49.3834 11.0049C49.3658 11.0049 49.1921 11.1253 48.9977 11.2724C48.2611 11.8297 47.4341 12.0995 46.4619 12.0995C45.0031 12.0995 43.9439 11.2884 43.5843 9.89584L43.4988 9.56457H47.1228H50.747L50.7466 8.94525C50.746 7.87702 50.5036 6.7098 50.1273 5.96385C49.5636 4.84624 48.5717 4.01681 47.4342 3.71187C47.0371 3.60547 45.7315 3.55384 45.3217 3.62839ZM63.0099 3.65616C61.8704 3.89473 60.9223 4.5401 60.2629 5.52606C59.3579 6.87889 59.1009 8.81666 59.598 10.5377C60.2393 12.7582 62.0054 14.0697 64.153 13.9203C65.2546 13.8438 66.1095 13.4402 66.8342 12.6546L67.1074 12.3587L67.1079 13.0356L67.1086 13.7127H68.1168H69.125V8.75802V3.80342H68.1168H67.1086V4.41566V5.02789L66.6909 4.63164C66.2517 4.21499 65.6913 3.88281 65.1498 3.71821C64.7141 3.58576 63.5125 3.5509 63.0099 3.65616ZM47.2442 5.62947C48.0205 5.99473 48.4622 6.66026 48.6421 7.73541L48.6781 7.95145H46.0818H43.4856L43.5226 7.79302C43.8049 6.58478 44.3868 5.86383 45.3595 5.51707C45.5827 5.43751 45.7856 5.41792 46.2532 5.43094C46.7924 5.44598 46.9001 5.46753 47.2442 5.62947ZM64.9836 5.5317C65.7251 5.66922 66.4218 6.17442 66.8459 6.88224L67.051 7.2245V8.725V10.2254L66.8926 10.5385C66.6786 10.9614 66.1501 11.4776 65.7096 11.694C64.5512 12.2627 63.2143 12.0996 62.3792 11.2874C61.9968 10.9155 61.6625 10.2117 61.5494 9.54027C61.4799 9.12805 61.5138 8.05193 61.6075 7.6922C61.8809 6.64229 62.5183 5.90583 63.3927 5.62918C63.9021 5.46804 64.4568 5.43405 64.9836 5.5317Z" fill="#939084"/>
</svg>
