<svg width="90" height="18" viewBox="0 0 90 18" fill="none" xmlns="http://www.w3.org/2000/svg">
<path d="M9.59892 5.17986V3.61229C9.74858 3.60162 9.89923 3.59293 10.0527 3.58812C14.2586 3.45294 17.0181 7.27277 17.0181 7.27277C17.0181 7.27277 14.0379 11.4936 10.8427 11.4936C10.3823 11.4936 9.97023 11.4182 9.59892 11.2906V6.53589C11.2368 6.73773 11.5655 7.47469 12.5497 9.14747L14.7389 7.26508C14.7389 7.26508 13.1408 5.1277 10.4467 5.1277C10.154 5.1277 9.87364 5.14889 9.59792 5.17886L9.59892 5.17986ZM9.59792 0V2.34219C9.74858 2.32961 9.90014 2.32001 10.0517 2.31421C15.9003 2.11329 19.7113 7.20522 19.7113 7.20522C19.7113 7.20522 15.3347 12.6313 10.7745 12.6313C10.3567 12.6313 9.96552 12.5917 9.59792 12.526V13.9738C9.91245 14.0144 10.2383 14.0385 10.5775 14.0385C14.8203 14.0385 17.8897 11.8296 20.8612 9.21411C21.3538 9.61588 23.3706 10.5943 23.7856 11.0232C20.9597 13.4349 14.3761 15.3782 10.6428 15.3782C10.2828 15.3782 9.93712 15.3559 9.59792 15.3231V17.3571H25.7256V0.000993205H9.59892L9.59792 0ZM9.59792 11.2897V12.526C5.67333 11.8123 4.58394 7.65334 4.58394 7.65334C4.58394 7.65334 6.46811 5.52366 9.59792 5.17886L9.59892 6.53589H9.59232C7.94967 6.33497 6.66705 7.89963 6.66705 7.89963C6.66705 7.89963 7.38603 10.5325 9.59892 11.2906L9.59792 11.2897ZM2.62873 7.47469C2.62873 7.47469 4.95433 3.97449 9.59892 3.61229V2.34409C4.45512 2.76522 0 7.20712 0 7.20712C0 7.20712 2.52265 14.644 9.59892 15.3249V13.9757C4.40586 13.3093 2.62873 7.47469 2.62873 7.47469Z" fill="#939084"/>
<path d="M54.4062 2.98869V14.3817H57.5626V2.98869H54.4062ZM29.5815 2.97321V14.3817H32.7653V5.52594L35.2491 5.53463C36.0657 5.53463 36.6312 5.73456 37.0243 6.16248C37.5234 6.70522 37.7272 7.57936 37.7272 9.17879V14.3817H40.8117V8.07864C40.8117 3.57979 37.999 2.97321 35.2481 2.97321H29.5815ZM59.4874 2.98869V14.3807H64.6057C67.333 14.3807 68.2224 13.9181 69.1858 12.8818C69.866 12.1535 70.3054 10.556 70.3054 8.80982C70.3054 7.20847 69.9332 5.78001 69.2843 4.89046C68.1153 3.29972 66.4311 2.98869 63.9161 2.98869H59.4874ZM62.6172 5.46898H63.9738C65.9424 5.46898 67.2155 6.3701 67.2155 8.7084C67.2155 11.0467 65.9424 11.9488 63.9738 11.9488H62.6172V5.46898ZM49.8564 2.98869L47.2229 12.0174L44.6993 2.98869H41.2928L44.8973 14.3807H49.4451L53.0781 2.98869H49.8564ZM71.7738 14.3807H74.9301V2.98869H71.7728L71.7738 14.3807ZM80.6206 2.99259L76.2138 14.377H79.3256L80.0229 12.3651H85.2376L85.8979 14.377H89.2759L84.8363 2.99159L80.6206 2.99259ZM82.6686 5.07011L84.5805 10.4034H80.6963L82.6686 5.07011Z" fill="#939084"/>
</svg>
