<svg width="67" height="22" viewBox="0 0 67 22" fill="none" xmlns="http://www.w3.org/2000/svg">
<path d="M60.7174 14.4591C58.8462 14.4591 57.5271 13.0047 57.5271 11.0919C57.5271 9.17914 58.8462 7.72469 60.7174 7.72469C62.5887 7.72469 63.871 9.17914 63.871 11.0919C63.871 13.0047 62.5703 14.4591 60.7174 14.4591ZM60.4168 16.4636C61.9261 16.4636 63.2084 15.8769 64.0182 14.6486C64.1716 15.8402 65.0367 16.2741 66.1288 16.2741H67V14.3858H66.6257C66.0061 14.3858 65.8527 14.0864 65.8527 13.3836V5.91581H63.8526V7.44969C63.1716 6.37414 61.8893 5.72636 60.4168 5.72636C57.7909 5.72636 55.3797 7.92025 55.3797 11.0919C55.3797 14.2636 57.797 16.4575 60.4168 16.4575V16.4636ZM50.1156 13.8725C50.1156 15.5714 51.1709 16.2741 52.4347 16.2741H54.8705V14.3858H53.0974C52.3611 14.3858 52.2077 14.1047 52.2077 13.3836V7.80414H54.8705V5.91581H52.2077V2.43858H50.1156V13.8725ZM40.5874 16.2741H42.6796V11.8314H43.379L46.9436 16.2741H49.588L45.0417 10.6397L48.5327 5.91581H46.1767L43.3238 9.90636H42.6796V2.43858H40.5874V16.2741ZM33.7956 5.72636C30.8691 5.72636 28.4579 7.92025 28.4579 11.0919C28.4579 14.2636 30.8752 16.4575 33.7956 16.4575C36.7161 16.4575 39.1334 14.2636 39.1334 11.0919C39.1334 7.92025 36.7161 5.72636 33.7956 5.72636ZM33.7956 14.4591C31.9244 14.4591 30.6053 13.0047 30.6053 11.0919C30.6053 9.17914 31.9244 7.72469 33.7956 7.72469C35.6669 7.72469 36.986 9.17914 36.986 11.0919C36.986 13.0047 35.6669 14.4591 33.7956 14.4591Z" fill="#939084"/>
<path fill-rule="evenodd" clip-rule="evenodd" d="M12.1435 0.152778L11.6895 5.72611C11.4747 5.70167 11.26 5.68944 11.0391 5.68944C10.7631 5.68944 10.4931 5.70778 10.2293 5.75056L9.9716 3.04944C9.96546 2.96389 10.033 2.89056 10.1188 2.89056H10.579L10.3581 0.158889C10.352 0.0733333 10.4195 0 10.4992 0H12.0024C12.0883 0 12.1558 0.0733333 12.1435 0.158889V0.152778ZM8.35187 0.427778C8.32733 0.348333 8.24144 0.299444 8.16168 0.33L6.75055 0.843333C6.67079 0.873889 6.63398 0.965556 6.67079 1.03889L7.8181 3.53222L7.38249 3.69111C7.30273 3.72167 7.26592 3.81333 7.30273 3.88667L8.47458 6.33722C8.89792 6.105 9.35806 5.92778 9.84275 5.81778L8.35801 0.427778H8.35187ZM4.89155 1.98L8.13714 6.53889C7.72607 6.80778 7.35182 7.12556 7.03278 7.49222L5.08788 5.58556C5.02653 5.52444 5.03266 5.42667 5.09402 5.37167L5.44987 5.07833L3.51724 3.12889C3.45589 3.06778 3.46202 2.97 3.52951 2.915L4.67682 1.95556C4.7443 1.90056 4.83633 1.91278 4.88542 1.98H4.89155ZM2.16747 4.62C2.09998 4.57111 2.00182 4.59556 1.95887 4.66889L1.21036 5.96444C1.16741 6.03778 1.19809 6.12944 1.27171 6.16611L3.76265 7.33944L3.52951 7.73667C3.48656 7.81 3.51724 7.90778 3.597 7.93833L6.07567 9.06889C6.25359 8.61056 6.49287 8.18278 6.78737 7.79778L2.16747 4.62ZM0.333009 8.14C0.34528 8.05444 0.431174 8.00556 0.510934 8.02389L5.94069 9.43556C5.79958 9.89389 5.71982 10.3767 5.70755 10.8778L2.9896 10.6578C2.90371 10.6517 2.84235 10.5722 2.86076 10.4867L2.94052 10.0344L0.198032 9.77778C0.112138 9.77167 0.0569199 9.69222 0.0691905 9.60667L0.326874 8.13389L0.333009 8.14ZM0.130544 11.7944C0.0446492 11.8006 -0.0105686 11.88 0.00170201 11.9656L0.265521 13.4383C0.277791 13.5239 0.363686 13.5728 0.443445 13.5544L3.10617 12.8639L3.18593 13.3161C3.1982 13.4017 3.2841 13.4506 3.36386 13.4322L5.98977 12.7111C5.83639 12.2589 5.73823 11.7761 5.71368 11.2811L0.124408 11.7944H0.130544ZM1.00176 15.6689C0.958812 15.5956 0.989489 15.5039 1.06311 15.4672L6.13089 13.0717C6.32108 13.5239 6.57876 13.9456 6.88553 14.3244L4.66454 15.9011C4.59706 15.95 4.49889 15.9317 4.45594 15.8583L4.2228 15.455L1.95887 17.0133C1.89138 17.0622 1.79322 17.0378 1.75027 16.9644L0.995624 15.6689H1.00176ZM7.14321 14.6178L3.1982 18.5961C3.13685 18.6572 3.14299 18.755 3.21047 18.81L4.36391 19.7694C4.4314 19.8244 4.52343 19.8122 4.57252 19.745L6.1677 17.5083L6.52355 17.8078C6.59104 17.8628 6.6892 17.8506 6.73828 17.7772L8.28438 15.5406C7.86718 15.2839 7.48066 14.9722 7.14935 14.6178H7.14321ZM6.36403 21.0039C6.28427 20.9733 6.24746 20.8817 6.28427 20.8083L8.62183 15.7239C9.0513 15.9439 9.51758 16.1089 10.0023 16.2006L9.31512 18.8283C9.29671 18.9078 9.20468 18.9567 9.12492 18.9261L8.68931 18.7672L7.95921 21.4133C7.93467 21.4928 7.84878 21.5417 7.76902 21.5111L6.35789 20.9978L6.36403 21.0039ZM10.3888 16.2678L9.93479 21.8411C9.92865 21.9267 9.99614 22 10.0759 22H11.5791C11.6649 22 11.7324 21.9267 11.7202 21.8411L11.4993 19.1094H11.9594C12.0453 19.1094 12.1128 19.0361 12.1067 18.9506L11.849 16.2494C11.5852 16.2922 11.3152 16.3106 11.0391 16.3106C10.8183 16.3106 10.6035 16.2983 10.3888 16.2678ZM15.8002 1.17944C15.837 1.1 15.8002 1.01444 15.7204 0.983889L14.3093 0.470556C14.2295 0.44 14.1436 0.488889 14.1191 0.568333L13.389 3.21444L12.9534 3.05556C12.8736 3.025 12.7877 3.07389 12.7632 3.15333L12.076 5.78111C12.5668 5.87889 13.027 6.04389 13.4565 6.25778L15.8002 1.17944ZM18.8801 3.39778L14.9351 7.37611C14.6038 7.02167 14.2234 6.71 13.8 6.45333L15.3461 4.21667C15.3952 4.14944 15.4934 4.13111 15.5609 4.18611L15.9167 4.48556L17.5119 2.24889C17.561 2.18167 17.6592 2.16944 17.7205 2.22444L18.8739 3.18389C18.9414 3.23889 18.9414 3.33667 18.8862 3.39778H18.8801ZM21.0152 6.52667C21.0949 6.49 21.1195 6.39833 21.0765 6.325L20.3219 5.02944C20.2789 4.95611 20.1808 4.93778 20.1133 4.98056L17.8493 6.53889L17.6162 6.14167C17.5733 6.06833 17.4751 6.04389 17.4076 6.09889L15.1866 7.67556C15.4934 8.05444 15.7449 8.47611 15.9413 8.92833L21.009 6.53278L21.0152 6.52667ZM21.8128 8.55556L22.0704 10.0283C22.0827 10.1139 22.0275 10.1872 21.9416 10.1994L16.3523 10.7189C16.3278 10.2178 16.2296 9.74111 16.0762 9.28889L18.7022 8.56778C18.7819 8.54333 18.8678 8.59833 18.8801 8.68389L18.9598 9.13611L21.6226 8.44556C21.7023 8.42722 21.7882 8.47611 21.8005 8.56167L21.8128 8.55556ZM21.5612 13.9639C21.641 13.9822 21.7269 13.9333 21.7391 13.8478L21.9968 12.375C22.0091 12.2894 21.9539 12.2161 21.868 12.2039L19.1255 11.9472L19.2053 11.495C19.2175 11.4094 19.1623 11.3361 19.0764 11.3239L16.3585 11.1039C16.3462 11.605 16.2664 12.0878 16.1253 12.5461L21.5551 13.9578L21.5612 13.9639ZM20.1133 17.325C20.0703 17.3983 19.9722 17.4167 19.9047 17.3739L15.2848 14.1961C15.5793 13.8111 15.8186 13.3833 15.9965 12.925L18.4752 14.0556C18.5549 14.0922 18.5856 14.1839 18.5426 14.2572L18.3095 14.6544L20.8004 15.8278C20.8741 15.8644 20.9047 15.9561 20.8618 16.0294L20.1133 17.325ZM13.935 15.4489L17.1806 20.0078C17.2297 20.075 17.3278 20.0872 17.3892 20.0322L18.5365 19.0728C18.604 19.0178 18.604 18.92 18.5488 18.8589L16.6161 16.9094L16.972 16.6161C17.0395 16.5611 17.0395 16.4633 16.9781 16.4022L15.0332 14.4956C14.7081 14.8622 14.3399 15.1861 13.9289 15.4489H13.935ZM13.9043 21.6578C13.8246 21.6883 13.7387 21.6394 13.7141 21.56L12.2294 16.17C12.7141 16.06 13.1742 15.8828 13.5976 15.6506L14.7694 18.1011C14.8062 18.1806 14.7694 18.2722 14.6897 18.2967L14.254 18.4556L15.4014 20.9489C15.4382 21.0283 15.4014 21.1139 15.3216 21.1444L13.9105 21.6578H13.9043Z" fill="#939084"/>
</svg>
