<svg width="80" height="24" viewBox="0 0 80 24" fill="none" xmlns="http://www.w3.org/2000/svg">
<path d="M8.64719 0.00609088C9.53921 -0.0261237 10.4312 0.0695682 11.2961 0.290324C13.588 0.879863 15.5507 2.35765 16.7507 4.39722C17.9141 6.3693 18.248 8.72224 17.6791 10.9401C17.0408 13.3878 15.5527 15.1437 13.4049 16.4083C14.1627 18.4964 16.0342 18.5025 17.9663 18.4898C17.946 18.7385 17.9443 19.0502 17.9512 19.3009C17.9937 20.8441 17.8797 22.4641 17.9727 24C14.1038 23.9938 10.5142 23.3541 8.40407 19.6646C7.10327 17.3901 7.36763 15.0509 7.3432 12.5572C7.72251 12.4325 8.3721 12.2877 8.78064 12.1807C9.70508 11.9652 10.432 11.8386 11.127 11.1545C11.6993 10.584 12.0235 9.81068 12.0292 9.00263C12.0307 8.19474 11.7123 7.41906 11.1437 6.8451C10.5708 6.2562 9.78504 5.92263 8.96344 5.91968C8.16771 5.92019 7.40527 6.23915 6.84619 6.80534C5.84857 7.80701 5.92128 8.77091 5.92291 10.084L5.92606 12.3448L5.92434 20.9657C5.36777 20.9982 4.51892 20.9699 3.94474 20.9691C2.6322 20.964 1.31963 20.9658 0.00710043 20.9745C0.085953 17.3883 -0.0367066 13.7579 0.0116885 10.167C0.0275518 8.99034 -0.0422953 8.03829 0.219509 6.86525C0.541668 5.41394 1.23844 4.07236 2.24043 2.97408C3.92861 1.12756 6.15537 0.118549 8.64719 0.00609088Z" fill="#36342E"/>
<path d="M44.1887 9.14138C45.4251 8.93407 46.5811 9.51123 47.2665 10.5284C47.3679 10.3991 47.4762 10.263 47.5887 10.1433C48.7472 8.91024 51.2171 8.72201 52.4635 9.93844C52.8614 10.3306 53.1417 10.8265 53.2718 11.3699C53.4494 12.083 53.3928 13.3865 53.3928 14.1556L53.396 17.9131C52.6594 17.908 51.9233 17.9089 51.1867 17.9158L51.1927 14.4564C51.1932 13.9971 51.2215 12.9117 51.1368 12.514C51.0694 12.2109 50.9173 11.9331 50.6985 11.7126C49.8215 10.8175 47.9456 11.2946 47.786 12.5544C47.649 13.6363 47.7221 14.9459 47.7245 16.0541L47.7224 17.926C46.9899 17.9195 46.2574 17.9229 45.5249 17.936L45.5272 14.5141C45.5284 13.885 45.5736 13.1082 45.4734 12.5067C45.3073 11.7412 44.588 11.2273 43.8302 11.2525C41.7727 11.3209 42.047 13.1504 42.049 14.54L42.0478 17.9195C41.3149 17.9282 40.5815 17.928 39.8486 17.9191C39.8766 16.9822 39.8514 15.9197 39.8518 14.9703L39.853 9.32917C40.5847 9.32344 41.3165 9.32295 42.0483 9.32759C42.0502 9.6501 42.049 9.91001 42.0246 10.2308C42.6853 9.54198 43.2423 9.26421 44.1887 9.14138Z" fill="#36342E"/>
<path d="M58.5583 9.07659C61.0729 8.79152 63.3424 10.6004 63.625 13.1154C63.9077 15.6304 62.0966 17.8979 59.5811 18.1781C57.0694 18.4579 54.8054 16.6498 54.5232 14.1382C54.2409 11.6267 56.0469 9.36127 58.5583 9.07659ZM59.3001 15.9716C60.5927 15.8451 61.54 14.6983 61.4203 13.4052C61.3005 12.1122 60.1583 11.1589 58.8646 11.2722C57.5615 11.3862 56.5999 12.5383 56.7204 13.8407C56.8414 15.1432 57.9983 16.0989 59.3001 15.9716Z" fill="#36342E"/>
<path d="M33.6316 9.14107C34.6176 8.95369 36.002 9.32635 36.8123 9.9117C37.7741 10.606 38.419 11.6556 38.6035 12.8274C38.6514 13.1286 38.7372 14.1722 38.5815 14.3865C38.3369 14.4318 36.955 14.411 36.6235 14.4109L31.969 14.4136C32.5015 16.1455 34.4187 16.5865 35.926 15.8137C36.2952 15.6244 36.5024 15.4248 36.7909 15.1296L37.198 15.4641C37.5455 15.7796 37.9174 16.0745 38.2431 16.4104C38.2328 16.4245 38.2224 16.4386 38.212 16.4526C36.7465 18.4054 33.2551 18.6143 31.349 17.1779C30.4182 16.4631 29.8097 15.4077 29.6573 14.2441C29.2905 11.5804 31.0003 9.49486 33.6316 9.14107ZM31.9867 12.8102C32.8197 12.802 33.6529 12.7998 34.4861 12.8037C35.1 12.8032 35.7322 12.811 36.3444 12.8019C35.9436 11.6435 35.1538 10.9826 33.8903 11.0547C32.8748 11.2651 32.2516 11.7997 31.9867 12.8102Z" fill="#36342E"/>
<path d="M74.3302 9.14282C74.5965 9.11795 74.8643 9.11217 75.1318 9.12542C76.3314 9.18805 77.3977 9.63714 78.1952 10.5446C79.2651 11.7616 79.398 12.8741 79.3179 14.4104C77.1425 14.4533 74.8519 14.4033 72.6622 14.4119C73.1677 16.1612 75.1325 16.5855 76.6172 15.811C76.9789 15.6225 77.1912 15.4122 77.4703 15.1194C77.5896 15.2131 77.7082 15.3241 77.8216 15.4265C78.1561 15.7084 78.6263 16.1078 78.9282 16.4121L78.9162 16.4282C77.4276 18.3963 73.9385 18.6437 72.0211 17.17C71.0902 16.4509 70.4835 15.3909 70.335 14.2238C69.9909 11.5684 71.699 9.47228 74.3302 9.14282ZM72.6578 12.8149C73.4926 12.8011 74.3274 12.798 75.162 12.8053L77.0251 12.8049C76.6332 11.6571 75.8339 10.9817 74.5701 11.056C73.4979 11.2892 72.9756 11.7959 72.6578 12.8149Z" fill="#36342E"/>
<path d="M67.4339 7.16898L67.4646 7.18929C67.5138 7.27904 67.5047 9.11491 67.5073 9.33808C68.2347 9.30123 69.0802 9.32356 69.8164 9.32686C69.806 9.97542 69.7952 10.7104 69.8203 11.3523C69.0447 11.3388 68.2799 11.3403 67.501 11.3211C67.4755 12.0398 67.4112 14.9274 67.6087 15.4119C67.705 15.6475 67.8767 15.8302 68.115 15.9241C68.6275 16.1263 69.3205 15.9217 69.802 15.7095C69.7785 16.3449 69.7976 17.1055 69.796 17.7493C69.497 17.9147 69.2112 17.9897 68.8827 18.0668C67.3621 18.3013 65.8016 17.8656 65.4156 16.2004C65.2515 15.4922 65.3038 14.714 65.3034 13.9875L65.3074 11.3278C64.8539 11.3414 64.4003 11.3464 63.9469 11.3428C63.9592 10.6712 63.9537 9.99934 63.9297 9.32808C64.3845 9.31526 64.8511 9.32063 65.3066 9.32063C65.287 8.86368 65.2958 8.37643 65.2958 7.91692C65.8319 7.6847 66.8495 7.37029 67.4339 7.16898Z" fill="#36342E"/>
<path d="M29.1833 9.19178C29.2154 9.18643 29.3052 9.19465 29.3426 9.19681C29.4682 9.34563 29.4087 11.1063 29.4057 11.4509C28.169 11.4547 27.0619 11.6615 26.6747 13.0988C26.5101 13.7096 26.5793 14.4499 26.573 15.0872C26.5636 16.0292 26.6016 16.9709 26.5711 17.9156C25.8387 17.9108 25.1063 17.9117 24.3739 17.9181L24.3787 17.1547L24.3691 9.33477C25.0325 9.30268 25.9003 9.32391 26.5822 9.32147C26.5912 9.68205 26.5732 10.0774 26.5638 10.4406C27.3182 9.53782 28.0041 9.19849 29.1833 9.19178Z" fill="#36342E"/>
</svg>
