<svg width="78" height="12" viewBox="0 0 78 12" fill="none" xmlns="http://www.w3.org/2000/svg">
<path fill-rule="evenodd" clip-rule="evenodd" d="M2.09942 0.215405C1.33448 0.469643 0.970231 0.747008 0.46922 1.45701C0.0461869 2.05664 -0.119516 3.44842 0.138712 4.2323C0.345055 4.85821 1.28484 5.77245 2.3338 6.36787C4.1627 7.40585 4.95418 7.99016 5.05585 8.3773C5.28933 9.26586 4.8924 9.89762 4.10061 9.89762C3.35307 9.89762 2.99917 9.46333 2.99917 8.54609V7.79524H1.49958H0V8.70106C0 9.82479 0.248031 10.4399 0.950287 11.0574C1.63245 11.6572 2.75939 12 4.04888 12C6.71049 12 8.10121 10.7866 8.09356 8.471C8.08861 6.93957 7.29953 5.97638 5.0671 4.77697C3.37976 3.87039 2.99917 3.52951 2.99917 2.92462C2.99917 2.34166 3.38711 1.93861 3.94826 1.93861C4.5133 1.93861 4.94863 2.42861 4.94863 3.06488V3.59048H6.37324H7.79784L7.79454 2.87717C7.78959 1.79084 7.35741 0.993588 6.5016 0.491419C5.85513 0.11194 5.61655 0.0623821 4.27592 0.028744C3.25425 0.00306497 2.55859 0.0628321 2.09942 0.215405ZM38.4218 0.270369C37.4746 0.59789 36.9471 1.0526 36.5734 1.86352C36.2723 2.51676 36.2057 3.64949 36.4332 4.24867C36.7014 4.95492 37.6669 5.83612 39.0261 6.61505C40.8184 7.64207 41.3885 8.15054 41.3885 8.72164C41.3885 9.36166 41.1546 9.70901 40.6488 9.82028C40.2097 9.91684 39.6204 9.71186 39.4038 9.38704C39.3433 9.29619 39.2927 8.90094 39.2914 8.50855L39.2891 7.79524H37.7732H36.2571L36.3127 8.89794C36.36 9.83335 36.4339 10.0867 36.8006 10.568C37.4766 11.4556 38.6029 11.8991 40.1811 11.8989C41.8035 11.8988 42.6017 11.6722 43.3435 11.0011C44.0232 10.3861 44.2356 9.77388 44.2368 8.42746C44.2383 6.78024 43.67 6.06753 41.3379 4.79214C39.6822 3.88676 39.2891 3.52621 39.2891 2.91216C39.2891 2.30157 39.6199 1.93861 40.1763 1.93861C40.702 1.93861 41.0765 2.34782 41.1897 3.04626L41.2779 3.59048H42.7035H44.129L44.0307 2.75163C43.9146 1.76261 43.643 1.1816 43.0954 0.750161C42.1362 -0.00534443 39.8864 -0.236305 38.4218 0.270369ZM72.5376 0.150381C71.3107 0.439609 70.4742 1.17124 70.1872 2.20606C69.9889 2.92102 69.9844 8.89914 70.1816 9.61005C70.2638 9.90603 70.5757 10.3935 70.875 10.6931C71.6521 11.4714 72.5805 11.7399 74.2735 11.6762C75.9642 11.6127 76.8333 11.2442 77.4742 10.3188C77.8925 9.71516 77.9046 9.64233 77.9517 7.47087L78 5.24235H75.957H73.9138L73.9592 6.03074L74.0045 6.81913L74.5669 6.86569L75.1292 6.91239V7.9379C75.1292 9.22966 74.8438 9.66576 74.014 9.64218C73.7095 9.63347 73.3298 9.50808 73.1701 9.36332C72.9002 9.11884 72.8798 8.87421 72.8798 5.89484C72.8798 2.88963 72.8986 2.67069 73.1797 2.38912C73.5584 2.00994 74.3951 1.99177 74.7239 2.35548C74.8564 2.5022 75.0106 2.90765 75.0662 3.2565L75.1676 3.89082H76.573H77.9784L77.9751 3.17751C77.9685 1.73948 77.1218 0.639785 75.6947 0.215405C74.8591 -0.0331266 73.4395 -0.0624096 72.5376 0.150381ZM11.8467 0.345603C11.8467 0.37804 11.4081 2.80524 10.872 5.73941C10.3359 8.67358 9.89726 11.1811 9.89726 11.3118C9.89726 11.5125 10.128 11.5495 11.385 11.5495H12.8726L12.9555 11.1365C13.0011 10.9095 13.3142 8.83141 13.6515 6.51879C13.9886 4.20618 14.3171 2.17993 14.3818 2.01594C14.4663 1.80165 14.5299 1.99147 14.6087 2.69171C14.7112 3.60459 15.6389 9.98982 15.8247 11.0614L15.9092 11.5495H17.4019C18.724 11.5495 18.8946 11.5195 18.894 11.2867C18.8936 11.1421 18.5973 9.43585 18.2356 7.4949C17.8737 5.55395 17.4261 3.13817 17.2407 2.12632L16.9036 0.286737H14.3752C12.9846 0.286737 11.8467 0.313316 11.8467 0.345603ZM21.3965 0.399364C21.3607 0.461234 21.283 2.99535 21.2239 6.03074L21.1163 11.5495H22.5548H23.9934L24.0088 6.70651C24.0194 3.40412 24.0689 2.03066 24.1645 2.38912C24.2414 2.67819 24.6577 4.84064 25.0894 7.19456L25.8744 11.4744L27.329 11.5174C28.7374 11.559 28.7862 11.5493 28.8622 11.217C28.9055 11.0282 29.1143 9.92765 29.3263 8.77134C29.5384 7.61504 29.8984 5.65532 30.1265 4.41641L30.5411 2.16386L30.6413 3.57606C30.6964 4.35274 30.7415 6.46443 30.7415 8.26888V11.5495H32.1743H33.6072L33.5189 7.00685C33.4704 4.50847 33.3935 1.97435 33.3479 1.37547L33.2651 0.286737H30.9826H28.7003L28.0428 4.41296C27.6813 6.68233 27.3626 8.51621 27.3347 8.48828C27.3068 8.46034 27.0165 6.75561 26.6895 4.69993C26.3626 2.64441 26.0595 0.81053 26.016 0.624619C25.9385 0.292894 25.8966 0.286737 23.6994 0.286737C22.4687 0.286737 21.4324 0.337494 21.3965 0.399364ZM46.8166 4.97955C46.8689 10.3891 46.894 10.5036 48.1971 11.3142C48.7956 11.6863 49.0999 11.7647 50.1617 11.8205C51.8439 11.909 52.6257 11.7714 53.4142 11.2485C54.6282 10.4432 54.6521 10.3273 54.7065 4.97955L54.7542 0.286737H53.2449H51.7357V4.76856C51.7357 8.91971 51.7154 9.26871 51.4614 9.49892C51.1777 9.75601 50.4448 9.82809 50.1331 9.62942C49.7118 9.36136 49.6363 8.57793 49.6363 4.48174V0.286737H48.2037H46.7713L46.8166 4.97955ZM57.734 5.84303V11.3993H59.1528H60.5714L60.5043 7.08193L60.4373 2.76454L60.7437 3.66556C60.9122 4.16112 61.5073 6.08706 62.0663 7.94541L63.0826 11.3242L65.1319 11.366L67.1814 11.4077V5.84723V0.286737H65.7383H64.2953L64.3902 4.60413L64.485 8.92151L63.5061 5.61777C62.9676 3.80072 62.3914 1.85797 62.2256 1.30038L61.9242 0.286737H59.8291H57.734V5.84303Z" fill="#939084"/>
</svg>
