<svg width="84" height="24" viewBox="0 0 84 24" fill="none" xmlns="http://www.w3.org/2000/svg">
<path d="M29.0105 13.322C28.2952 12.9259 27.9184 12.6052 27.9184 12.1514C27.9184 11.5668 28.4264 11.2092 29.2361 11.2092C30.1778 11.2092 31.0059 11.6053 31.0059 11.6053L31.6652 9.58631C31.6652 9.58631 31.0628 9.11483 29.2737 9.11483C26.7887 9.11483 25.0573 10.5485 25.0573 12.5483C25.0573 13.6804 25.8662 14.548 26.9399 15.1702C27.8056 15.661 28.1064 16.0202 28.1064 16.5294C28.1064 17.0762 27.6744 17.51 26.8647 17.51C25.6597 17.51 24.53 16.8878 24.53 16.8878L23.8339 18.906C23.8339 18.906 24.8876 19.6044 26.6382 19.6044C29.1985 19.6044 31.0251 18.3407 31.0251 16.0763C31.0628 14.8311 30.121 13.9635 29.0105 13.322ZM39.2141 9.07714C37.9523 9.07714 36.9738 9.68012 36.2017 10.5862L36.1641 10.5669L37.2563 4.83145H34.3943L31.6276 19.4159H34.4703L35.412 14.435C35.7881 12.5483 36.7482 11.3976 37.6523 11.3976C38.2924 11.3976 38.5372 11.8306 38.5372 12.4536C38.5372 12.8498 38.4996 13.322 38.4052 13.7181L37.3323 19.4352H40.175L41.2855 13.5481C41.4135 12.9334 41.4829 12.3078 41.4927 11.6799C41.5303 10.0393 40.7023 9.07634 39.2149 9.07634L39.2141 9.07714ZM47.9679 9.07714C44.5419 9.07714 42.2632 12.1706 42.2632 15.6233C42.2632 17.8307 43.6194 19.6228 46.1797 19.6228C49.5489 19.6228 51.8083 16.6047 51.8083 13.0767C51.8267 11.02 50.641 9.07714 47.9679 9.07714ZM46.5749 17.4162C45.5956 17.4162 45.2004 16.5855 45.2004 15.5479C45.2004 13.9066 46.0477 11.2461 47.591 11.2461C48.608 11.2461 48.928 12.1145 48.928 12.9628C48.928 14.7365 48.0807 17.4162 46.5749 17.4162ZM59.1124 9.07714C57.1921 9.07714 56.1008 10.7746 56.1008 10.7746H56.0632L56.232 9.24633H53.7101C53.5789 10.2839 53.3525 11.8499 53.1269 13.039L51.1506 23.4532H53.9926L54.7839 19.2275H54.8399C54.8399 19.2275 55.4239 19.6044 56.5153 19.6044C59.866 19.6044 62.0503 16.1701 62.0503 12.699C62.0503 10.7931 61.203 9.07634 59.114 9.07634L59.1124 9.07714ZM56.4016 17.4723C55.6672 17.4723 55.2343 17.057 55.2343 17.057L55.7056 14.3973C56.044 12.6236 56.9665 11.4353 57.9458 11.4353C58.8115 11.4353 59.0748 12.246 59.0748 13.0013C59.0748 14.8311 57.9826 17.4723 56.4016 17.4723ZM66.1156 4.9822C65.2115 4.9822 64.4778 5.69903 64.4778 6.64279C64.4778 7.49193 65.0058 8.07646 65.8139 8.07646H65.8523C66.7372 8.07646 67.5085 7.47268 67.5277 6.41667C67.5461 5.56673 66.9821 4.9822 66.1156 4.9822ZM62.1247 19.4159H64.9858L66.9253 9.30326H64.0449L62.1247 19.4159ZM74.1541 9.28402H72.1778L72.2715 8.81254C72.4411 7.8319 73.0059 6.96352 73.9661 6.96352C74.4741 6.96352 74.8702 7.11426 74.8702 7.11426L75.4342 4.88838C75.4342 4.88838 74.9454 4.64302 73.89 4.64302C72.8739 4.64302 71.8762 4.92607 71.1049 5.58678C70.1256 6.41667 69.6736 7.60498 69.4479 8.81254L69.3727 9.28402H68.055L67.6405 11.4353H68.9583L67.4525 19.4159H70.2952L71.801 11.4353H73.7588L74.1541 9.28402ZM81.0069 9.30326C81.0069 9.30326 79.2187 13.7935 78.4282 16.2463H78.3906C78.3338 15.4541 77.6937 9.30326 77.6937 9.30326H74.7005L76.4127 18.5852C76.4511 18.7937 76.4319 18.9252 76.3567 19.0575C75.9843 19.7436 75.4552 20.3316 74.8125 20.7734C74.2861 21.1703 73.6844 21.4149 73.2124 21.5857L74.0045 24C74.5877 23.8685 75.7727 23.3962 76.7896 22.4533C78.0889 21.2265 79.2939 19.359 80.5172 16.7932L84 9.30406L81.0069 9.30326ZM14.0256 2.73707C14.0256 2.73707 13.7616 2.81245 13.3287 2.94555C13.2383 2.65989 13.1249 2.38207 12.9895 2.11485C12.5006 1.1711 11.7653 0.661939 10.9004 0.661939C10.8436 0.661939 10.7868 0.661939 10.7116 0.681183C10.6932 0.643497 10.6556 0.625055 10.6364 0.586567C10.2604 0.171219 9.77072 -0.0172108 9.18665 0.00123128C8.05772 0.0405209 6.92879 0.851973 6.02469 2.30409C5.38462 3.32241 4.89576 4.60534 4.76374 5.60602C3.4644 6.00213 2.56109 6.28517 2.54189 6.30361C1.88342 6.51209 1.86421 6.53053 1.7898 7.15355C1.7314 7.62262 0 20.9049 0 20.9049L14.232 23.3762V2.71863C14.12 2.71863 14.0624 2.73707 14.0248 2.73707H14.0256ZM10.7308 3.7562C9.97794 3.98232 9.14905 4.24692 8.33935 4.49228C8.56578 3.60546 9.01783 2.71863 9.54429 2.1333C9.75231 1.92642 10.0339 1.68106 10.354 1.52952C10.674 2.20947 10.75 3.13318 10.7308 3.7562ZM9.18665 0.774997C9.45068 0.774997 9.67631 0.831125 9.86433 0.944985C9.56349 1.09573 9.26186 1.34109 8.97943 1.62413C8.26414 2.3979 7.71848 3.60465 7.49286 4.75608C6.81518 4.96376 6.1375 5.17143 5.51663 5.35986C5.93028 3.54853 7.45525 0.813485 9.18665 0.774997ZM7.0024 11.1523C7.07841 12.359 10.2596 12.6236 10.4484 15.4725C10.5804 17.7177 9.26266 19.246 7.36084 19.359C5.06458 19.5098 3.80283 18.1515 3.80283 18.1515L4.29249 16.0763C4.29249 16.0763 5.55343 17.0385 6.57035 16.9623C7.22883 16.9255 7.47445 16.3778 7.45525 16.0001C7.36084 14.4157 4.76294 14.5103 4.59333 11.9068C4.44291 9.71781 5.87347 7.51037 9.03623 7.30269C10.2604 7.22732 10.8812 7.52961 10.8812 7.52961L10.166 10.2462C10.166 10.2462 9.35627 9.86935 8.39616 9.94472C7.0032 10.0385 6.984 10.9254 7.0032 11.1523H7.0024ZM11.4829 3.53008C11.4829 2.96399 11.4085 2.15254 11.1445 1.47339C12.011 1.64338 12.4246 2.60557 12.6134 3.19011C12.2742 3.28472 11.8974 3.39778 11.4829 3.53008ZM14.6657 23.3401L20.5768 21.8679C20.5768 21.8679 18.0341 4.64302 18.0165 4.53077C18.0092 4.47995 17.9844 4.43328 17.9464 4.39886C17.9084 4.36444 17.8596 4.34444 17.8084 4.34234C17.7148 4.34234 16.0586 4.30385 16.0586 4.30385C16.0586 4.30385 15.0417 3.32241 14.6649 2.94475L14.6657 23.3401Z" fill="#939084"/>
</svg>
