<svg width="119" height="12" viewBox="0 0 119 12" fill="none" xmlns="http://www.w3.org/2000/svg">
<path d="M91.2334 0.236805C92.1805 0.211059 93.2243 0.233901 94.1788 0.235018V11.0766L91.7311 11.0753V6.19113L91.7304 4.00047C90.8636 5.40783 89.8556 8.04748 88.8713 9.45626C88.7872 9.57687 88.5983 9.55455 88.4666 9.53268C87.8826 9.13251 85.9676 4.9151 85.4907 3.96289L85.4922 11.077L83.0527 11.0729L83.0557 0.233828L85.9802 0.23472C86.8291 1.95587 87.7315 3.68602 88.6042 5.39794C89.3675 4.09244 90.5333 1.62066 91.2334 0.236805Z" fill="#201515"/>
<path fill-rule="evenodd" clip-rule="evenodd" d="M46.4854 0.217797C48.2848 0.221145 52.13 -0.0642889 53.6348 0.626C54.3977 0.975945 55.0479 1.58418 55.3369 2.38381C55.6585 3.27367 55.6205 4.40807 55.2178 5.26663C54.7582 6.24576 53.9125 6.67111 52.9414 7.01858L55.7002 11.0537L54.9863 11.0664L52.7266 11.0674C51.9891 10.0417 51.2163 8.834 50.5049 7.77541C50.0087 7.93849 49.4881 8.08644 48.9863 8.23635C48.9638 9.15835 48.9845 10.1481 48.9873 11.0752H46.4824L46.4854 0.217797ZM52.2422 2.7383C51.3982 2.53467 49.9078 2.64339 48.9863 2.65725L48.9932 5.79885C50.0597 5.52365 51.2165 5.24838 52.2578 4.91018C53.4132 4.35868 53.4241 3.02357 52.2422 2.7383Z" fill="#201515"/>
<path fill-rule="evenodd" clip-rule="evenodd" d="M101.361 0.0185968C105.664 -0.186929 105.732 2.57177 106.238 6.0225C106.477 7.70808 106.727 9.3921 106.988 11.0743H104.47C104.403 10.2565 104.216 9.145 104.1 8.32133H102.546L99.6797 8.32035L99.2871 11.0752L96.7969 11.0772L97.4766 6.27055C97.8857 3.41463 97.8655 0.391677 101.361 0.0185968ZM102.75 2.54887C102.258 2.1839 101.87 2.2657 101.305 2.31645C100.167 3.0525 100.219 4.79014 100.018 6.04496L102.452 6.04789L103.731 6.04594C103.609 5.04202 103.536 3.13149 102.75 2.54887Z" fill="#201515"/>
<path d="M109.612 0.226562L112.101 0.227157C112.432 0.84155 113.173 1.92918 113.566 2.54878L116.565 7.29635C116.534 4.96074 116.557 2.57237 116.554 0.232812L118.998 0.230579L119.001 11.0729L116.48 11.0779L112.038 4.05332L112.046 11.08L109.595 11.0756C109.599 7.49867 109.54 3.79178 109.612 0.226562Z" fill="#201515"/>
<path fill-rule="evenodd" clip-rule="evenodd" d="M24.0059 0.221477C25.7182 0.225272 29.9439 -0.0202788 31.2725 0.66386C32.0496 1.06239 32.6337 1.758 32.8916 2.59257C33.1676 3.47061 33.1208 4.5493 32.6846 5.37089C31.9977 6.66454 30.7221 6.93882 29.4326 7.33964C28.4802 7.64173 27.44 7.99369 26.4785 8.23515L26.4805 11.0769L24.002 11.075L24.0059 0.221477ZM30.5371 4.20488C31.2719 2.16081 27.681 2.64407 26.4814 2.66386L26.4844 5.80448C27.5599 5.52382 28.7346 5.24081 29.7871 4.90605C30.1272 4.73907 30.3968 4.59494 30.5371 4.20488Z" fill="#201515"/>
<path d="M58.3297 0.230217L60.8227 0.22739L60.8265 4.3724L65.2069 4.37493V0.245172C65.9762 0.211539 66.921 0.23431 67.7044 0.231631L67.7082 7.78582C67.7082 8.32476 67.7468 10.6168 67.6747 11.0326L67.4872 11.0775L65.2062 11.0733C65.2233 9.60243 65.2092 8.10332 65.2099 6.63003L60.8242 6.62564L60.825 11.0774L58.3223 11.0745L58.3297 0.230217Z" fill="#201515"/>
<path d="M35.3419 0.230469L43.5088 0.245499L43.5085 2.51184L37.8343 2.50484L37.8375 4.39587L42.642 4.40048L42.6496 6.65901L38.0997 6.64911L37.9428 6.675C37.7478 6.97643 37.835 8.37636 37.8433 8.83494L43.5059 8.8368L43.5079 11.0787L35.3398 11.0781L35.3419 0.230469Z" fill="#201515"/>
<path d="M4.06102 0.0215888C6.60888 -0.147542 8.69586 0.649524 9.06085 3.39089C8.2471 3.37734 7.40389 3.39163 6.58775 3.39483C6.49104 3.11751 6.40794 2.90738 6.19985 2.68653C5.53712 1.98315 3.67728 1.87444 3.00868 2.6003C2.83943 2.78267 2.75372 3.02732 2.77225 3.27548C2.79084 3.55518 2.96553 3.89843 3.22978 4.01153C5.37665 4.93025 9.13599 4.51155 9.24454 7.7429C9.33315 10.3808 7.22556 11.2426 4.93332 11.3162C2.25973 11.3289 0.453225 10.5081 0 7.72854L2.52547 7.72445C2.84865 9.00472 3.87131 9.24231 5.04663 9.20786C5.85815 9.18405 6.8384 8.77443 6.74659 7.79774C6.66751 6.9567 5.50461 6.7895 4.85245 6.64374C3.59098 6.3618 2.22491 6.15576 1.17443 5.34277C-0.00394334 4.45724 -0.0438947 2.45244 0.881601 1.37724C1.70666 0.418782 2.85252 0.135732 4.06102 0.0215888Z" fill="#201515"/>
<path d="M18.5786 0.228516L21.0507 0.22978L21.0479 2.48287C21.0622 6.36381 21.9297 11.3606 16.4269 11.3201C11.5565 11.2842 11.5876 8.28154 11.5989 4.40001L11.606 0.228738L14.1163 0.230673L14.1093 4.61997C14.108 5.54062 14.1327 6.33903 14.1755 7.26385C14.2845 9.62082 18.1296 9.70066 18.4639 7.48931C18.619 6.46403 18.5874 5.53534 18.5867 4.48417L18.5786 0.228516Z" fill="#201515"/>
<path d="M77.5991 0.231195L80.1107 0.228516V2.48488C80.1226 6.3679 80.9514 11.3795 75.4647 11.3217C70.6482 11.271 70.6534 8.40045 70.6564 4.56319L70.6616 0.23432L73.1346 0.232088L73.1249 4.45694C73.1227 6.42631 72.7068 9.07117 75.3724 9.06514C78.0447 9.05911 77.608 6.56278 77.6065 4.68381L77.5991 0.231195Z" fill="#201515"/>
</svg>
