<svg width="97" height="15" viewBox="0 0 97 15" fill="none" xmlns="http://www.w3.org/2000/svg">
<path d="M51.6992 1.70312C53.6367 1.70395 55.6823 1.7058 57.1309 3.20898C59.3427 5.50432 59.2915 9.06652 57.1055 11.3164C55.38 12.9207 53.7354 12.976 51.5615 12.9756L48.9297 12.9727L48.9307 1.70508L51.6992 1.70312ZM55.9492 4.29004C54.5787 2.84609 52.2946 3.12782 50.4531 3.1377L50.4551 11.541C52.5129 11.5484 54.2256 11.7427 55.9062 10.3389C57.5519 8.66711 57.5686 5.99679 55.9492 4.29004Z" fill="#36342E"/>
<path d="M2.08922 0.0381697C2.93393 -0.0276678 4.25652 0.0116225 5.12291 0.0117281L10.6443 0.0178618C8.90087 2.19719 7.47885 3.83405 5.34441 5.66923C3.59654 7.11816 2.14571 8.08123 0.0218798 8.88842L0.016552 4.55176C0.0155497 2.56898 -0.320901 0.656521 2.08922 0.0381697Z" fill="#36342E"/>
<path d="M45.3995 1.69551L46.9246 1.69594L46.9241 12.9642L44.9833 12.9637C42.8592 9.92628 40.7993 6.73328 38.6919 3.66438L38.6949 12.9632H37.168L37.1692 1.69598L39.1705 1.69531L45.4004 10.9949L45.3995 1.69551Z" fill="#36342E"/>
<path d="M92.2471 1.67188C92.6912 2.84416 93.329 4.25929 93.8223 5.43457L96.998 12.9912L95.3613 12.9893L94.1914 10.1084L92.0625 10.1094L88.7539 10.1084L87.5283 12.9922L85.9688 12.9883C86.5189 11.8337 87.0881 10.4299 87.6045 9.24414L90.9062 1.67188H92.2471ZM91.498 3.65625C90.8054 5.28815 90.0694 7.1318 89.3398 8.72949L91.5898 8.73242L93.6348 8.73047C93.4096 8.18045 91.6542 3.7931 91.498 3.65625Z" fill="#36342E"/>
<path d="M65.0332 1.67188C65.3782 2.61337 65.9078 3.72118 66.2939 4.68066C67.4038 7.43936 68.6913 10.2289 69.7705 12.9912L68.1514 12.9902L66.9795 10.1094H64.8955L61.54 10.1084L60.3213 12.9902L58.7695 12.9893C59.2617 11.7596 59.896 10.3887 60.4287 9.16406L63.6943 1.67188H65.0332ZM64.2969 3.65625C63.5689 5.33234 62.8721 7.08047 62.1289 8.7373L64.3174 8.74023L66.4199 8.73926C66.2449 8.3089 64.4284 3.78071 64.2969 3.65625Z" fill="#36342E"/>
<path d="M28.094 1.70312L35.3537 1.70355L35.3535 3.13504L29.6206 3.13514L29.6214 6.48625C31.3855 6.50683 33.1897 6.48968 34.9568 6.49089L34.9564 7.92636C33.2337 7.95545 31.416 7.92763 29.6862 7.92795C29.5641 8.06271 29.6199 11.1069 29.6216 11.5397L35.6424 11.5393L35.6418 12.9708L28.0938 12.9697L28.094 1.70312Z" fill="#36342E"/>
<path d="M74.086 1.41422C75.7282 1.27838 76.8592 1.71744 77.8462 3.03413L76.5981 3.92156C76.0263 3.1423 75.562 2.78941 74.5629 2.76507C73.4646 2.73831 72.2935 3.34975 72.3305 4.60464C72.399 6.97377 75.9044 6.38777 77.1583 7.88864C77.7433 8.48473 77.9242 9.13197 77.9126 9.97447C77.8826 12.1891 76.1966 13.2637 74.1251 13.2503C72.4513 13.1724 71.4622 12.6735 70.4805 11.3303L71.8415 10.4213C72.0377 10.7713 72.2672 11.1047 72.5953 11.3609C73.9784 12.4375 76.6693 11.827 76.4388 9.7347C76.3079 8.54512 74.7602 8.21889 73.8233 7.90802C72.3721 7.42654 71.1161 6.84101 70.9088 5.17237C70.6356 2.96947 71.9786 1.67057 74.086 1.41422Z" fill="#36342E"/>
<path d="M16.8711 1.6991L18.6211 1.69531L21.9382 10.8837C22.3478 9.93529 22.7893 8.65143 23.1592 7.66186L25.3932 1.69774L27.0582 1.69885L26.4391 3.28361C26.015 4.26325 25.5663 5.49966 25.1693 6.5086L22.6263 12.9653L21.189 12.9645C20.8667 11.9989 20.3899 10.9144 20.0299 9.9364C19.0231 7.20208 17.8489 4.4355 16.8711 1.6991Z" fill="#36342E"/>
<path d="M11.6924 0.00976036C12.8027 -0.0246787 14.0977 0.393663 14.4554 1.57512C14.5462 1.87639 14.6031 2.18684 14.625 2.50077C14.6643 3.09527 14.6415 3.90056 14.6418 4.5119L14.6426 8.08762L14.6415 10.8234C14.6408 11.846 14.7563 12.5395 14.2609 13.4675C14.1657 13.6223 13.9823 13.8295 13.8615 13.9746C11.5044 10.0764 11.688 4.39825 11.6924 0.00976036Z" fill="#36342E"/>
<path d="M0.0201626 10.6016C4.96927 10.8956 7.83416 12.3201 12.1011 14.6395C11.2435 14.6978 9.76202 14.652 8.83707 14.6521L2.82892 14.653C1.93515 14.6485 1.40911 14.5443 0.731149 13.8989C-0.150225 13.06 0.0132522 11.7639 0.0201626 10.6016Z" fill="#36342E"/>
<path d="M78.4609 1.66406L87.3364 1.66454L87.3353 3.03965L83.6264 3.03923L83.6285 9.23593L83.6317 12.9829L82.1652 12.9811L82.1657 3.04007L78.4615 3.03902L78.4609 1.66406Z" fill="#36342E"/>
</svg>
